<?xml version="1.0" standalone="no"?>
<!DOCTYPE svg PUBLIC "-//W3C//DTD SVG 20010904//EN"
 "http://www.w3.org/TR/2001/REC-SVG-20010904/DTD/svg10.dtd">
<svg version="1.0" xmlns="http://www.w3.org/2000/svg"
 width="820.000000pt" height="820.000000pt" viewBox="0 0 820.000000 820.000000"
 preserveAspectRatio="xMidYMid meet">
<metadata>
Created by potrace 1.14, written by Peter Selinger 2001-2017
</metadata>
<g transform="translate(0.000000,820.000000) scale(0.100000,-0.100000)"
fill="#000000" stroke="none">
<path d="M5851 8091 c-6 -4 -26 -28 -44 -54 -19 -26 -36 -44 -39 -41 -4 3 -9
-4 -13 -15 -3 -12 -11 -21 -17 -21 -6 0 -9 -3 -5 -6 3 -3 -4 -16 -16 -28 -13
-11 -28 -33 -35 -48 -6 -16 -16 -28 -22 -28 -5 0 -9 -4 -7 -9 1 -5 -4 -18 -10
-28 -7 -10 -31 -46 -53 -81 -41 -64 -51 -78 -82 -113 -10 -10 -18 -22 -18 -27
0 -7 -38 -34 -55 -39 -72 -18 -246 -97 -253 -115 -2 -4 -10 -8 -17 -8 -7 0
-15 -3 -17 -7 -4 -9 -65 -53 -73 -53 -3 0 -35 -20 -72 -45 -36 -25 -62 -45
-58 -45 4 0 -23 -22 -61 -50 -38 -27 -72 -50 -77 -50 -4 0 -5 -4 -2 -10 3 -5
0 -10 -7 -10 -15 0 -70 -41 -97 -72 -9 -10 -19 -18 -23 -18 -7 0 -124 -116
-154 -152 -6 -7 -22 -22 -37 -32 -14 -11 -24 -23 -21 -28 3 -4 -2 -8 -10 -8
-9 0 -16 -5 -16 -11 0 -5 -4 -7 -10 -4 -5 3 -10 -2 -10 -11 0 -10 -3 -15 -6
-11 -4 3 -19 0 -34 -8 -15 -8 -30 -11 -34 -8 -17 18 -484 17 -581 -1 -11 -2
-29 0 -41 4 -11 5 -28 4 -37 -1 -12 -7 -17 -6 -17 2 0 8 -4 8 -15 -1 -9 -7
-18 -10 -22 -7 -3 3 -20 0 -37 -7 -17 -7 -56 -19 -86 -26 -30 -7 -58 -17 -61
-22 -3 -5 -16 -10 -27 -11 -12 -1 -22 -5 -22 -10 0 -4 -4 -6 -9 -2 -5 3 -12 1
-16 -5 -4 -6 -10 -8 -15 -5 -5 3 -11 1 -15 -5 -4 -6 -11 -8 -16 -5 -5 4 -9 2
-9 -4 0 -6 -7 -8 -15 -5 -8 4 -21 2 -28 -4 -7 -6 -24 -13 -37 -15 -14 -2 -38
-10 -55 -17 -32 -14 -42 -17 -65 -23 -8 -2 -37 -13 -65 -26 -27 -13 -54 -24
-60 -25 -5 -1 -20 -7 -32 -14 -12 -7 -28 -12 -37 -12 -8 0 -21 -6 -28 -13 -7
-7 -20 -16 -28 -20 -40 -20 -59 -34 -53 -40 3 -4 0 -7 -8 -7 -8 0 -20 -5 -27
-12 -14 -14 -52 -18 -52 -5 0 5 -7 7 -15 3 -8 -3 -15 -1 -15 4 0 6 -5 10 -11
10 -6 0 -30 14 -54 30 -24 17 -48 30 -54 30 -6 0 -11 3 -11 8 0 4 -15 14 -33
22 -17 7 -41 22 -51 32 -10 9 -23 15 -28 12 -4 -3 -8 0 -8 5 0 6 -3 10 -8 10
-17 -3 -72 14 -72 23 0 5 -4 6 -10 3 -5 -3 -10 -2 -10 2 0 5 -11 10 -26 11
-14 1 -35 7 -47 14 -12 7 -25 13 -29 14 -5 1 -11 3 -15 4 -5 1 -11 2 -15 1 -5
0 -8 3 -8 8 0 5 -27 14 -60 22 -33 7 -60 17 -60 22 0 5 -6 7 -14 4 -7 -3 -26
1 -41 9 -15 8 -31 12 -35 9 -5 -3 -14 0 -22 7 -7 7 -24 15 -38 17 -14 1 -28 8
-32 15 -4 6 -8 8 -8 4 0 -4 -15 -2 -32 3 -18 5 -44 12 -58 14 -46 8 -55 11
-69 19 -10 7 -12 5 -6 -3 4 -8 -4 -6 -18 4 -14 9 -28 16 -31 16 -4 -1 -7 -1
-8 0 -2 0 -25 3 -53 5 -27 3 -52 10 -56 16 -4 7 -8 6 -12 -3 -4 -10 -6 -10 -6
-1 -1 6 -11 12 -24 12 -13 0 -28 5 -35 12 -7 7 -12 8 -12 4 0 -5 -7 -3 -15 4
-8 7 -15 9 -15 5 0 -4 -7 -2 -15 5 -8 7 -15 9 -15 6 0 -4 -10 -1 -23 5 -12 7
-35 14 -51 16 -17 2 -32 7 -35 11 -4 4 -17 9 -31 11 -28 4 -53 9 -60 11 -3 1
-9 2 -13 1 -4 -1 -10 6 -13 14 -3 8 -10 12 -15 9 -5 -3 -9 -1 -9 4 0 5 -12 14
-26 21 -28 12 -126 85 -172 128 -56 51 -65 58 -57 44 5 -9 4 -12 -3 -7 -7 4
-12 13 -12 20 0 7 -11 19 -25 26 -13 7 -27 22 -31 33 -5 16 -8 17 -15 6 -7
-11 -9 -11 -9 2 0 26 -26 30 -51 8 -12 -10 -26 -19 -30 -19 -11 0 -32 -79 -25
-96 3 -8 2 -14 -2 -14 -4 0 -7 -43 -7 -95 0 -52 4 -95 8 -95 5 0 5 -5 1 -12
-4 -7 -7 -31 -5 -54 3 -56 5 -67 15 -83 7 -10 6 -12 -4 -6 -10 6 -11 4 -4 -6
11 -18 12 -79 1 -79 -4 0 -3 -8 2 -18 6 -11 6 -24 1 -32 -5 -8 -6 -19 -1 -25
4 -5 8 -26 10 -45 2 -19 8 -43 13 -54 7 -14 7 -17 -2 -11 -9 5 -10 2 -6 -12
24 -75 32 -123 22 -127 -7 -3 -6 -5 2 -5 6 -1 12 -12 12 -26 0 -14 4 -25 8
-25 5 0 9 -12 9 -27 2 -47 7 -83 13 -83 3 0 6 -26 7 -59 2 -32 9 -74 18 -93 8
-20 11 -38 8 -42 -4 -3 -2 -6 4 -6 14 0 23 -37 15 -60 -4 -11 -28 -34 -55 -53
-26 -18 -44 -37 -40 -40 3 -4 1 -7 -5 -7 -7 0 -20 -8 -30 -17 -9 -10 -30 -27
-46 -38 -16 -11 -41 -29 -56 -40 -42 -31 -144 -99 -150 -100 -3 0 -22 -8 -42
-18 -35 -16 -51 -37 -29 -37 5 0 19 -11 32 -25 13 -14 40 -33 59 -43 19 -9 45
-26 58 -37 13 -11 27 -20 30 -21 21 -1 112 -40 112 -47 0 -4 5 -5 10 -2 6 3
10 2 10 -2 0 -5 17 -17 37 -28 21 -11 41 -23 44 -27 3 -5 17 -9 32 -10 15 -1
27 -6 27 -10 0 -4 13 -8 29 -8 16 0 31 -5 33 -11 2 -6 19 -13 38 -15 33 -3 72
-10 78 -14 1 -2 5 -3 10 -4 4 -1 12 -4 18 -8 10 -7 39 -14 96 -25 15 -3 35
-14 44 -24 9 -10 24 -19 32 -19 9 0 12 -3 9 -6 -3 -4 3 -18 13 -32 11 -13 20
-31 20 -38 0 -8 5 -14 11 -14 6 0 9 -7 5 -15 -3 -8 -2 -15 2 -15 4 0 16 -16
26 -35 11 -19 23 -35 27 -35 5 0 18 -18 29 -40 11 -22 18 -40 15 -40 -6 0 4
-13 33 -45 7 -8 10 -15 5 -15 -4 -1 2 -9 14 -19 12 -10 19 -22 15 -25 -3 -4
-2 -10 3 -14 18 -13 42 -67 40 -89 -1 -13 1 -23 5 -23 4 0 7 -7 8 -15 1 -8 3
-22 4 -30 1 -8 5 -15 10 -15 4 0 8 -9 8 -20 0 -11 4 -20 9 -20 6 0 8 -9 6 -20
-2 -11 0 -20 4 -20 14 0 7 -33 -9 -50 -19 -20 -50 -20 -51 0 0 10 -2 11 -6 2
-5 -12 -51 46 -56 70 -1 6 -15 24 -31 40 -16 15 -26 28 -23 28 4 0 -13 20 -36
44 -40 41 -118 91 -102 66 4 -7 -4 -4 -19 5 -14 10 -26 14 -26 9 0 -4 -5 -3
-11 3 -14 14 -54 -6 -76 -36 -15 -23 -25 -201 -10 -201 4 0 7 -6 6 -12 -1 -7
1 -20 4 -28 4 -8 8 -24 10 -35 2 -11 13 -42 26 -70 30 -65 61 -160 67 -208 3
-21 7 -45 8 -52 1 -8 5 -17 9 -21 3 -4 2 -15 -3 -25 -7 -12 -7 -20 0 -24 8 -5
7 -11 -1 -21 -9 -11 -9 -14 0 -14 7 0 9 -5 5 -12 -5 -7 -7 -27 -5 -45 2 -27
-28 -99 -59 -138 -4 -5 -23 -40 -43 -77 -19 -37 -37 -64 -41 -60 -4 3 -4 -1 0
-11 3 -10 1 -17 -5 -17 -6 0 -11 -7 -11 -15 0 -9 -7 -18 -15 -21 -8 -4 -15
-10 -15 -15 0 -5 -23 -32 -50 -60 -54 -55 -63 -79 -27 -80 12 0 39 -2 60 -4
20 -1 37 1 37 5 0 6 35 6 50 0 3 -1 9 -2 13 -1 5 1 6 -3 2 -9 -3 -5 -1 -10 5
-10 6 0 8 -5 4 -12 -5 -7 -10 -33 -12 -58 -2 -24 -8 -53 -13 -62 -6 -10 -7
-23 -4 -28 3 -6 1 -10 -6 -10 -7 0 -9 -3 -6 -6 3 -4 0 -16 -8 -28 -8 -11 -15
-28 -15 -38 0 -10 -5 -18 -11 -18 -5 0 -7 -4 -4 -10 6 -10 -22 -69 -38 -81 -5
-3 -7 -9 -5 -12 3 -5 -39 -61 -67 -91 -17 -19 -46 -66 -40 -67 20 -5 32 -4 43
4 6 5 12 6 12 1 0 -5 4 -4 8 1 8 11 97 54 122 59 8 2 29 8 45 15 51 20 55 21
55 10 0 -6 4 -8 8 -5 5 3 16 -8 26 -25 9 -16 14 -29 10 -29 -3 0 0 -7 7 -17 8
-9 13 -18 12 -20 -2 -1 -3 -4 -2 -5 12 -41 16 -108 6 -108 -4 0 -6 -4 -3 -8 3
-5 6 -27 7 -50 3 -47 10 -51 41 -22 12 11 18 20 14 20 -5 0 -3 7 4 15 11 13
21 46 36 114 3 13 12 40 20 60 14 32 22 62 26 99 1 6 6 12 11 12 5 0 7 7 4 15
-4 8 -2 17 4 20 5 4 7 10 4 15 -3 5 -1 11 5 15 5 3 10 16 10 29 0 13 9 33 20
46 11 13 20 20 20 15 0 -4 6 -2 14 4 10 8 16 9 21 1 3 -6 10 -8 14 -6 12 8 27
-27 30 -74 2 -25 5 -48 7 -52 2 -3 0 -8 -5 -10 -5 -1 -12 -23 -15 -48 -3 -25
-9 -56 -12 -70 -3 -14 -6 -31 -6 -37 -1 -7 -5 -13 -9 -13 -4 0 -10 -16 -13
-35 -4 -19 -12 -35 -18 -35 -5 0 -8 -7 -5 -15 4 -8 2 -17 -4 -20 -5 -4 -7 -10
-4 -15 3 -5 -3 -13 -12 -19 -10 -6 -14 -11 -10 -11 5 0 0 -16 -12 -36 -12 -19
-21 -37 -21 -40 0 -13 54 -1 72 16 12 10 25 17 30 14 4 -3 8 -1 8 5 0 5 16 15
35 22 19 7 35 17 35 22 0 4 5 5 10 2 6 -3 10 1 10 10 0 9 5 13 10 10 6 -3 10
-2 10 2 0 5 9 9 20 10 11 1 20 -2 20 -8 0 -5 3 -8 8 -8 4 1 12 1 18 0 15 -1
134 -117 134 -130 0 -6 4 -11 8 -11 9 0 43 -65 48 -88 8 -41 13 -45 39 -28 15
10 25 12 25 6 0 -6 4 -9 9 -5 5 3 16 -2 24 -10 9 -8 18 -15 21 -15 4 0 20 -13
38 -30 17 -16 36 -30 41 -30 6 0 7 -3 4 -6 -8 -8 63 -65 73 -59 8 5 19 -16 26
-52 4 -20 -49 -81 -147 -169 -17 -15 -15 -64 2 -64 5 0 8 -3 8 -7 -1 -5 0 -10
1 -13 1 -3 3 -12 5 -20 1 -9 11 -36 22 -60 31 -71 36 -84 35 -96 -1 -6 7 -19
18 -29 11 -10 20 -26 20 -37 0 -10 5 -18 11 -18 6 0 8 -7 5 -15 -3 -9 1 -18 9
-21 8 -4 12 -10 9 -15 -6 -10 42 -99 58 -110 6 -3 8 -8 7 -10 -4 -6 64 -143
73 -147 5 -2 8 -8 8 -14 0 -5 9 -21 20 -35 11 -14 20 -34 20 -45 0 -13 4 -17
12 -12 12 7 -3 -16 -27 -42 -9 -9 -57 -12 -75 -4 -3 1 -9 1 -15 0 -14 -3 -121
-11 -175 -13 -25 -1 -49 -8 -53 -15 -6 -8 -13 -9 -26 -2 -10 5 -21 6 -25 2 -4
-3 -37 -8 -73 -9 -37 -2 -71 -7 -76 -12 -5 -5 -16 -7 -23 -4 -8 3 -14 0 -14
-7 0 -6 -4 -8 -10 -5 -5 3 -19 1 -31 -6 -16 -8 -20 -8 -14 1 6 9 2 9 -14 1
-12 -7 -26 -9 -31 -6 -6 3 -10 1 -10 -5 0 -6 -4 -9 -9 -5 -5 3 -12 1 -16 -5
-4 -6 -10 -8 -15 -5 -5 3 -16 -2 -24 -11 -9 -8 -16 -12 -16 -8 0 3 -6 1 -13
-5 -8 -6 -17 -8 -20 -4 -4 3 -9 -2 -13 -11 -3 -9 -9 -14 -14 -11 -4 2 -17 -5
-28 -16 -12 -11 -22 -16 -22 -12 -1 8 -17 -17 -20 -29 -1 -4 -6 -22 -11 -40
-6 -18 -12 -42 -14 -53 -2 -11 -5 -29 -8 -40 -11 -49 -20 -114 -23 -165 -2
-30 -5 -84 -8 -120 -4 -36 -8 -84 -10 -108 -2 -23 -6 -46 -10 -49 -3 -3 -1
-12 5 -20 9 -10 8 -13 0 -13 -7 0 -9 -5 -5 -11 12 -20 12 -69 0 -69 -7 0 -7
-3 -1 -8 14 -10 14 -252 0 -252 -6 0 -7 -3 0 -8 11 -8 16 -52 6 -52 -10 0 -7
-65 4 -72 7 -5 6 -8 -1 -8 -6 0 -10 -20 -9 -47 l1 -48 3221 -3 3222 -2 -4 21
c-2 11 -5 41 -6 65 -2 25 -6 47 -11 50 -4 3 -3 14 2 25 6 10 7 19 3 19 -5 0
-10 11 -11 26 -1 18 2 23 11 18 9 -6 9 -5 0 7 -6 8 -14 27 -17 43 -3 16 -8 31
-10 34 -3 3 -1 11 5 19 9 10 8 13 -1 13 -8 0 -10 3 -7 7 4 3 2 12 -3 19 -8 8
-6 17 5 28 15 15 15 16 -2 16 -15 0 -16 2 -3 10 10 6 11 10 3 10 -7 0 -13 5
-13 11 0 5 5 7 11 3 8 -5 8 -1 0 14 -6 11 -8 28 -5 36 4 9 1 16 -6 16 -10 0
-10 3 0 15 7 8 8 15 3 15 -11 0 -11 29 0 47 4 6 2 15 -4 19 -8 5 -9 3 -4 -6 5
-9 4 -11 -4 -6 -9 6 -9 11 0 22 6 8 8 14 5 14 -4 0 -2 10 5 21 9 17 8 20 -3
13 -11 -6 -11 -5 0 8 10 13 10 17 -5 23 -17 6 -17 7 1 21 11 8 15 14 10 14 -5
0 -11 12 -12 28 -1 15 -7 28 -12 30 -6 2 -10 8 -10 13 0 6 4 8 8 5 5 -3 9 1 9
9 0 8 -5 11 -10 8 -6 -4 -8 0 -4 10 3 10 2 17 -3 17 -5 0 -6 7 -3 17 4 11 3
14 -5 9 -15 -9 -15 -1 -1 26 9 16 8 19 -2 13 -9 -6 -11 -2 -7 13 4 16 2 22 -9
22 -13 0 -13 3 -3 15 10 12 10 15 0 15 -10 0 -10 3 -1 14 9 11 9 16 0 22 -8 5
-10 3 -5 -7 4 -8 0 -5 -9 6 -9 11 -14 28 -11 38 5 20 -41 60 -58 50 -6 -4 -5
1 3 10 11 15 11 17 -2 17 -9 0 -14 7 -13 18 2 9 -2 20 -8 24 -7 5 -6 8 3 8 11
0 9 4 -5 15 -12 9 -14 14 -6 15 7 0 10 5 7 10 -4 6 -11 8 -16 5 -5 -4 -9 -1
-9 5 0 6 -4 8 -10 5 -5 -3 -10 0 -10 7 0 7 -10 18 -22 23 -13 6 -22 17 -20 24
2 8 -3 11 -12 8 -11 -4 -14 0 -11 14 3 16 0 19 -12 15 -13 -5 -14 -4 -3 9 9
11 9 15 1 15 -7 0 -9 5 -6 10 3 6 0 10 -7 10 -9 0 -9 3 2 10 12 8 12 10 1 10
-10 0 -11 3 -2 14 9 10 7 17 -6 27 -17 13 -17 13 -3 -6 14 -19 14 -19 -3 -6
-12 10 -15 17 -7 25 14 14 13 29 -2 20 -8 -5 -9 -2 -5 9 3 10 3 17 -2 17 -5 0
-7 11 -6 25 2 14 0 23 -5 20 -4 -3 -11 2 -14 11 -9 24 -7 31 4 14 5 -8 10 -10
10 -4 0 6 -6 17 -14 23 -8 7 -13 21 -11 33 3 14 0 18 -11 14 -12 -4 -12 -2 -4
14 9 16 8 18 -6 13 -10 -3 -15 -2 -12 3 3 5 0 15 -8 22 -11 10 -14 10 -14 0 0
-10 -2 -10 -9 1 -6 9 -10 10 -16 2 -5 -9 -10 -9 -21 0 -12 10 -13 9 -8 -6 5
-13 4 -16 -5 -11 -6 4 -19 2 -28 -6 -14 -11 -16 -11 -9 0 7 11 4 12 -11 4 -21
-12 -41 -11 -60 1 -9 5 -11 3 -7 -6 3 -8 0 -18 -7 -23 -7 -4 -10 -3 -6 3 4 6
-6 13 -24 15 -16 3 -33 0 -36 -5 -4 -6 -1 -7 7 -2 9 5 11 4 6 -4 -6 -9 -11 -9
-22 0 -9 7 -14 8 -14 1 0 -8 -28 -9 -37 -2 -4 3 -20 7 -34 9 -5 0 -7 6 -3 12
5 8 1 8 -14 0 -18 -10 -20 -9 -17 10 3 12 2 19 -2 15 -4 -3 -16 2 -27 11 -20
17 -20 17 -6 -2 15 -19 15 -19 -12 0 -15 11 -28 23 -28 28 0 4 -5 7 -11 7 -5
0 -7 -6 -3 -12 4 -7 -3 -4 -16 7 -13 11 -20 15 -17 8 4 -6 3 -14 -3 -18 -5 -3
-10 -1 -10 4 0 15 -43 14 -59 -1 -11 -10 -13 -10 -7 0 9 15 -6 16 -22 0 -9 -9
-12 -9 -12 1 0 7 -5 9 -10 6 -6 -4 -7 -11 -4 -17 5 -7 2 -8 -7 -3 -7 5 -22 10
-31 10 -14 1 -15 -1 -6 -12 9 -11 6 -12 -16 -3 -15 5 -25 6 -22 1 7 -11 -22
-23 -35 -15 -5 3 -9 1 -9 -4 0 -12 -64 -11 -72 2 -5 7 -8 4 -8 -6 0 -21 -15
-24 -27 -5 -4 6 -16 13 -25 13 -10 1 -15 -2 -12 -7 9 -15 -8 -10 -20 6 -21 28
-56 -5 -103 -97 -42 -82 -68 -108 -92 -94 -6 4 -6 19 0 39 6 17 12 39 14 47 2
8 4 17 6 20 1 3 3 10 4 15 7 40 20 67 35 78 19 13 55 77 43 77 -4 0 2 7 13 15
19 15 19 15 -1 8 -16 -6 -18 -4 -9 8 7 8 14 41 16 74 3 33 10 70 16 81 8 16 8
24 -1 33 -7 7 -7 12 -2 11 21 -5 27 1 16 14 -9 10 -9 16 -1 21 8 5 7 11 -2 23
-10 12 -10 14 -1 8 9 -5 13 0 13 16 0 48 5 93 13 106 5 6 4 12 0 12 -5 0 -9 9
-9 19 0 16 3 18 15 8 12 -10 13 -9 4 8 -5 11 -8 26 -7 33 1 6 2 17 3 23 0 5 7
7 14 3 7 -5 7 -1 -2 10 -9 11 -11 20 -5 24 6 4 10 26 10 49 -1 22 2 39 5 37
12 -7 18 23 7 34 -8 8 -8 15 1 26 6 7 10 26 7 40 -3 16 0 26 7 26 7 0 6 4 -3
10 -13 8 -8 14 11 12 3 -1 6 5 6 13 0 8 -4 12 -9 9 -12 -8 -10 10 4 24 13 13
21 45 9 38 -4 -3 -7 4 -7 14 0 14 4 16 12 9 9 -7 12 -5 10 8 -2 10 4 29 13 43
10 14 11 21 4 17 -16 -10 -16 3 -3 37 5 14 6 26 1 26 -4 0 -8 7 -8 15 0 9 4
11 11 6 8 -7 11 3 11 30 0 21 -4 39 -9 39 -6 0 -1 7 10 16 10 8 13 13 7 9 -8
-4 -13 0 -13 10 0 11 -5 15 -14 12 -8 -3 -17 1 -20 9 -3 8 -9 14 -13 13 -4 -1
-11 0 -15 1 -5 1 -12 4 -18 5 -5 1 -12 4 -15 5 -5 3 -6 3 -50 15 -16 4 -35 12
-42 17 -7 5 -16 7 -22 4 -5 -4 -16 0 -24 8 -11 11 -17 12 -27 3 -10 -9 -11 -9
-6 1 4 7 1 12 -7 12 -17 0 -42 44 -33 59 4 6 2 11 -5 11 -8 0 -7 5 2 17 12 14
12 16 -1 9 -13 -6 -13 -6 0 6 9 7 15 20 15 28 -1 8 2 20 6 25 4 6 10 22 13 37
2 14 9 35 15 46 6 11 7 22 4 26 -3 3 -2 6 4 6 6 0 10 10 9 23 -1 12 2 24 6 27
4 3 9 31 11 61 3 31 10 66 16 77 7 13 7 23 2 27 -6 3 -6 16 0 34 7 21 16 28
32 26 35 -4 37 -5 35 -12 -4 -12 28 -54 35 -46 4 3 7 -1 7 -10 0 -10 3 -16 8
-14 4 1 18 -8 32 -20 13 -13 28 -23 32 -23 5 0 6 -5 2 -12 -4 -6 -3 -8 3 -5 5
3 21 -5 36 -19 14 -13 30 -24 35 -24 6 0 13 -7 16 -16 3 -8 10 -13 15 -10 5 3
12 -1 15 -10 4 -9 9 -14 12 -11 5 5 27 -10 59 -40 7 -7 15 -9 19 -6 3 3 12 1
19 -5 8 -7 17 -9 20 -5 4 3 7 0 7 -7 0 -7 3 -10 7 -7 3 4 12 2 20 -5 7 -6 16
-8 20 -4 3 3 1 6 -6 6 -7 0 -9 5 -6 10 3 6 2 10 -2 10 -5 0 -17 18 -27 40 -10
22 -22 40 -27 40 -5 0 -9 5 -9 10 0 6 -10 21 -23 33 -49 47 -120 185 -110 214
5 13 33 6 33 -8 0 -4 10 -19 23 -32 62 -66 87 -96 87 -106 0 -6 5 -11 11 -11
5 0 7 -4 4 -10 -3 -5 1 -10 9 -10 8 0 18 -9 21 -20 3 -11 11 -20 16 -20 6 0 8
-3 6 -7 -3 -5 1 -13 8 -20 10 -9 12 3 13 55 0 92 4 125 16 141 9 12 8 13 -4 6
-12 -7 -13 -6 -4 6 12 16 12 48 1 66 -4 6 -1 18 7 26 8 8 12 18 8 21 -3 4 8 5
26 1 18 -3 32 -1 32 4 0 4 18 5 40 1 22 -4 42 -5 45 -2 6 6 28 12 62 15 13 1
23 6 23 10 0 5 4 6 9 3 5 -3 11 4 15 17 8 30 7 39 -1 34 -11 -5 -43 30 -35 38
4 4 3 6 -3 5 -21 -5 -46 0 -41 8 2 4 -9 17 -25 27 -16 11 -29 24 -29 28 0 5
-13 21 -30 37 -16 15 -26 30 -23 34 3 3 1 6 -6 6 -14 0 -41 24 -41 37 0 5 -8
16 -17 25 -28 26 -43 46 -43 58 0 5 -4 10 -9 10 -4 0 -8 10 -7 23 2 19 -13 80
-31 127 -4 8 -5 19 -4 24 1 4 -3 14 -10 22 -6 7 -12 30 -14 51 -2 30 3 43 24
60 25 22 36 27 54 24 4 0 7 4 7 10 0 5 5 7 10 4 6 -3 10 -1 10 4 0 6 3 10 8 9
14 -3 62 14 62 23 0 5 7 9 15 9 8 0 19 9 25 20 9 16 7 25 -7 44 -10 12 -23 21
-30 19 -6 -2 -27 11 -46 29 -54 50 -95 84 -123 99 -31 16 -109 91 -123 117 -6
11 -7 22 -4 26 13 13 15 45 11 169 -1 20 -5 37 -10 37 -4 0 -8 9 -8 20 0 11
-4 20 -10 20 -5 0 -10 9 -10 19 0 11 -4 23 -10 26 -5 3 -10 15 -10 26 0 10 -5
19 -12 19 -6 0 -8 3 -5 7 4 3 0 17 -8 30 -12 17 -12 23 -3 23 10 0 10 2 0 9
-7 4 -14 14 -15 22 -2 8 -6 20 -10 27 -5 7 -3 12 3 12 7 0 8 6 0 19 -6 12 -6
22 -1 26 9 5 7 42 -4 73 -2 6 0 12 6 12 6 0 6 7 -1 20 -8 15 -8 20 2 20 8 0 9
3 3 8 -5 4 -10 34 -10 67 1 33 -3 76 -8 95 -5 19 -9 58 -10 85 -1 28 -4 52 -7
55 -3 3 -13 19 -22 35 -18 33 -48 39 -84 19 -13 -8 -25 -9 -31 -3 -5 5 -21 -3
-42 -21 -18 -17 -36 -30 -40 -30 -10 0 -81 -82 -81 -93 0 -5 -4 -5 -10 -2 -5
3 -10 2 -10 -4 0 -17 -103 -81 -131 -81 -26 0 -64 31 -52 43 3 4 1 7 -5 7 -7
0 -12 7 -12 15 0 8 -4 15 -10 15 -5 0 -10 7 -10 15 0 8 -9 20 -20 27 -11 7
-20 17 -20 23 0 6 -14 21 -32 35 -17 14 -44 36 -58 50 -15 14 -31 27 -36 30
-5 3 -8 9 -6 13 1 5 -2 6 -7 3 -16 -10 -23 14 -9 31 11 14 11 16 -1 8 -10 -5
-12 -4 -7 3 4 8 18 9 34 5 15 -3 32 -6 39 -6 7 0 10 -4 7 -9 -3 -4 0 -9 5 -9
34 -4 71 -20 71 -30 0 -5 9 -9 20 -9 11 0 20 -5 20 -11 0 -8 5 -8 15 1 10 9
15 9 15 1 0 -6 7 -11 15 -11 8 0 15 -5 15 -11 0 -5 5 -7 10 -4 6 3 10 1 10 -5
0 -6 8 -14 18 -17 9 -4 30 -19 47 -35 l30 -27 12 23 c9 17 10 33 3 57 -5 18
-6 35 -2 38 9 7 12 41 3 41 -3 0 -7 24 -8 53 -2 62 -6 88 -16 104 -5 7 -10 22
-13 33 -2 11 -6 28 -8 38 -2 9 -18 43 -34 74 -17 32 -30 67 -29 79 1 18 109
153 167 209 23 23 60 78 60 90 0 5 4 10 9 10 5 0 12 8 15 18 4 10 20 34 36 52
16 18 28 35 26 38 -3 2 5 14 16 27 11 13 18 25 17 28 -2 2 2 11 9 20 8 9 11
21 7 27 -3 5 -1 10 5 10 6 0 8 5 5 10 -3 6 -2 10 3 10 5 0 17 19 28 43 10 23
25 53 33 66 8 13 16 31 17 40 3 21 9 42 18 62 4 9 5 29 2 45 -2 16 -5 35 -5
42 -1 15 -77 15 -96 1 -6 -4 -22 -10 -35 -12 -14 -3 -54 -13 -90 -22 -36 -9
-84 -18 -107 -20 -22 -1 -46 -6 -53 -10 -6 -4 -22 -8 -36 -10 -19 -2 -28 4
-35 23 -6 16 -6 29 1 37 8 9 8 15 0 20 -6 3 -7 12 -3 18 10 17 10 127 -1 127
-4 0 -3 7 4 15 9 11 9 15 1 15 -7 0 -9 5 -5 11 7 12 2 254 -6 254 -1 0 -3 23
-6 50 -5 69 -10 97 -19 118 -4 9 -5 24 -1 32 3 8 1 15 -4 15 -5 0 -7 7 -4 15
4 8 -1 33 -10 56 -9 22 -14 45 -11 50 4 5 1 9 -5 9 -7 0 -10 7 -6 15 3 8 -1
20 -7 27 -14 14 -28 43 -33 68 -2 8 -8 16 -13 18 -6 2 -11 10 -11 17 0 14 -43
26 -59 16z m657 -5376 c-3 -3 -9 2 -12 12 -6 14 -5 15 5 6 7 -7 10 -15 7 -18z
m1173 -1642 c13 -16 12 -17 -3 -4 -10 7 -18 15 -18 17 0 8 8 3 21 -13z"/>
<path d="M7700 1039 c0 -5 5 -7 10 -4 6 3 10 8 10 11 0 2 -4 4 -10 4 -5 0 -10
-5 -10 -11z"/>
</g>
</svg>
