<?xml version="1.0" encoding="UTF-8" standalone="no"?>
<svg xmlns="http://www.w3.org/2000/svg" version="1.2" baseProfile="tiny" viewBox="0.00 0.00 31.00 31.00">
<path fill="#000000" d="
  M 31.00 18.08
  L 31.00 22.96
  Q 27.95 25.89 23.55 27.04
  Q 23.08 27.17 22.72 26.84
  Q 21.98 26.17 21.75 25.19
  Q 21.64 24.70 22.09 24.48
  L 23.18 23.93
  A 0.50 0.50 0.0 0 0 22.76 23.03
  Q 15.38 26.16 8.00 22.89
  Q 7.82 22.81 7.67 22.95
  L 7.45 23.17
  A 0.35 0.34 36.7 0 0 7.53 23.71
  L 8.87 24.48
  Q 9.33 24.74 9.22 25.26
  C 8.22 29.78 1.11 24.06 0.00 22.88
  L 0.00 17.97
  Q 0.79 12.39 3.57 7.57
  C 5.07 4.97 7.51 4.40 10.20 3.78
  Q 10.84 3.64 11.27 4.13
  L 11.92 4.89
  Q 12.24 5.25 12.72 5.25
  L 17.94 5.25
  Q 18.45 5.25 18.86 4.94
  L 19.82 4.21
  Q 20.31 3.84 20.91 3.94
  C 23.58 4.40 25.90 4.96 27.38 7.50
  Q 30.23 12.40 31.00 18.08
  Z
  M 10.3064 19.7897
  A 3.12 2.73 90.8 0 0 13.0797 16.7081
  A 3.12 2.73 90.8 0 0 10.3936 13.5503
  A 3.12 2.73 90.8 0 0 7.6203 16.6319
  A 3.12 2.73 90.8 0 0 10.3064 19.7897
  Z
  M 20.6366 19.7597
  A 3.11 2.74 90.8 0 0 23.4197 16.6883
  A 3.11 2.74 90.8 0 0 20.7234 13.5403
  A 3.11 2.74 90.8 0 0 17.9403 16.6117
  A 3.11 2.74 90.8 0 0 20.6366 19.7597
  Z"
/>
</svg>
