<?xml version="1.0" encoding="UTF-8" standalone="no"?>
<svg xmlns="http://www.w3.org/2000/svg" version="1.2" baseProfile="tiny" viewBox="0.00 0.00 512.00 512.00">
<path fill="#1d1d1b" d="
  M 124.87 371.47
  Q 144.09 388.44 167.78 396.46
  C 172.81 398.17 195.50 406.17 196.23 410.27
  Q 198.33 422.13 197.96 433.84
  A 2.47 2.46 -22.6 0 1 197.29 435.45
  C 191.97 441.03 165.83 466.44 158.78 465.09
  Q 152.71 463.93 146.77 462.19
  Q 100.16 448.55 53.43 429.34
  C 40.79 424.15 26.30 416.35 18.16 406.24
  C 8.36 394.06 7.06 378.62 8.37 363.32
  Q 9.74 347.34 12.38 331.52
  C 25.47 252.80 49.30 174.76 74.27 98.63
  Q 74.42 98.15 74.85 97.88
  Q 77.67 96.12 79.05 95.52
  Q 129.12 73.92 180.70 56.22
  Q 187.65 53.84 194.77 52.03
  C 204.24 49.61 208.44 67.32 208.99 73.65
  A 2.29 2.29 0.0 0 1 207.92 75.79
  L 186.65 88.93
  Q 185.54 89.62 186.81 89.31
  Q 193.96 87.60 201.05 86.00
  C 224.67 80.67 248.60 78.64 272.73 80.82
  Q 313.26 84.47 352.27 95.73
  A 0.42 0.42 0.0 0 0 352.68 95.02
  C 343.60 86.55 330.82 82.50 319.08 77.80
  C 312.87 75.32 307.32 72.30 301.63 69.17
  Q 301.21 68.94 301.00 68.51
  C 298.45 63.32 299.50 52.94 300.62 47.39
  A 0.71 0.71 0.0 0 1 301.29 46.82
  Q 303.33 46.74 304.78 47.15
  Q 347.15 59.08 385.79 79.89
  C 399.60 87.32 408.28 91.82 417.84 100.19
  C 429.85 110.70 439.82 125.80 447.37 139.90
  C 454.42 153.07 460.63 166.38 466.13 180.60
  Q 489.06 239.84 500.24 302.50
  C 506.17 335.75 508.60 377.96 482.19 402.93
  C 444.44 438.63 386.92 454.72 336.57 461.85
  C 322.24 463.88 308.34 465.16 294.96 461.31
  Q 288.72 459.51 287.73 453.23
  Q 284.73 434.29 285.03 413.75
  Q 285.06 411.22 285.72 409.26
  Q 285.90 408.72 286.45 408.58
  C 313.12 401.80 337.76 392.73 358.83 377.78
  A 0.35 0.35 0.0 0 0 358.48 377.17
  Q 317.77 395.64 274.10 402.34
  C 246.10 406.63 218.63 405.14 191.07 397.66
  Q 155.96 388.14 125.03 371.24
  Q 123.94 370.65 124.87 371.47
  Z
  M 96.39 337.85
  A 0.80 0.79 37.9 0 1 97.49 337.72
  C 136.59 367.18 187.13 383.40 236.19 381.06
  C 293.38 378.32 353.63 368.08 400.03 331.69
  C 403.12 329.27 409.69 328.05 411.57 332.41
  C 412.96 335.64 408.33 343.18 406.12 346.13
  C 380.74 380.05 344.22 404.72 304.49 418.75
  Q 304.00 418.93 303.90 419.43
  C 302.96 424.31 304.87 432.00 306.13 436.69
  A 1.74 1.73 -9.6 0 0 307.94 437.97
  Q 312.56 437.62 317.19 436.70
  Q 375.85 424.97 431.39 402.76
  C 449.64 395.46 483.02 381.79 486.51 362.74
  Q 487.89 355.24 486.64 342.50
  C 483.83 313.66 478.73 285.71 472.49 257.45
  Q 461.69 208.52 439.57 160.68
  C 431.88 144.05 423.10 125.83 410.52 113.37
  Q 396.74 99.72 378.03 92.89
  Q 377.34 92.64 377.71 93.28
  L 386.07 107.43
  Q 386.39 107.98 386.12 108.56
  Q 383.49 114.32 379.51 119.27
  A 1.49 1.48 -57.7 0 1 377.71 119.68
  Q 343.71 103.30 306.00 97.79
  C 249.12 89.48 185.79 90.79 135.81 121.56
  C 132.38 123.67 129.09 128.33 124.41 129.29
  C 119.14 130.37 120.01 122.77 120.94 120.14
  Q 121.71 117.96 124.42 115.46
  Q 148.49 93.23 173.10 71.75
  A 0.24 0.24 0.0 0 0 172.86 71.35
  Q 138.86 84.34 105.12 98.20
  Q 98.65 100.85 92.37 103.95
  C 89.04 105.59 86.95 113.05 85.73 116.38
  C 71.12 156.28 57.93 196.64 46.32 237.52
  Q 29.36 297.22 26.51 359.38
  C 25.44 382.62 46.72 399.04 66.02 406.48
  Q 106.53 422.10 151.57 431.85
  Q 152.00 431.94 152.34 431.66
  Q 163.53 422.19 172.57 410.68
  A 0.69 0.69 0.0 0 0 172.49 409.74
  Q 171.28 408.65 169.78 407.93
  C 138.79 393.09 110.35 380.11 90.44 350.54
  A 1.84 1.83 37.9 0 1 90.23 348.90
  Q 92.35 342.84 96.39 337.85
  Z"
/>
<path fill="#1d1d1b" d="
  M 105.04 162.02
  Q 105.88 162.53 105.48 163.43
  C 96.55 183.51 87.67 204.07 82.53 225.25
  Q 81.89 227.88 80.82 229.48
  Q 80.52 229.92 79.98 229.94
  Q 74.37 230.14 71.30 225.70
  Q 70.97 225.22 71.17 224.68
  Q 80.83 198.57 90.19 172.45
  C 91.59 168.55 93.59 162.52 96.00 160.42
  A 1.68 1.66 22.9 0 1 97.00 160.02
  Q 101.34 159.79 105.04 162.02
  Z"
/>
<path fill="#1d1d1b" d="
  M 414.32 184.98
  A 1.31 1.30 -61.3 0 1 416.13 184.45
  Q 429.52 192.06 441.70 201.48
  Q 442.18 201.85 442.10 202.46
  L 441.46 207.46
  A 0.94 0.94 0.0 0 1 440.06 208.15
  L 412.02 191.65
  A 1.08 1.07 -61.3 0 1 411.61 190.23
  L 414.32 184.98
  Z"
/>
<path fill="#1d1d1b" d="
  M 289.70 302.48
  C 279.15 287.52 278.58 266.72 278.45 249.19
  Q 278.38 239.66 279.86 233.94
  C 285.37 212.68 308.17 197.15 330.41 204.09
  C 362.92 214.25 364.87 257.30 357.75 284.01
  C 353.84 298.67 345.38 310.34 330.53 315.27
  C 315.46 320.28 298.87 315.48 289.70 302.48
  Z
  M 302.18 292.57
  C 310.09 299.40 321.63 303.03 330.54 297.01
  C 341.66 289.51 347.83 262.46 340.93 251.17
  C 330.87 234.74 308.75 231.79 294.41 244.66
  C 290.66 248.04 291.71 265.02 292.25 269.82
  C 293.34 279.39 295.21 286.56 302.18 292.57
  Z"
/>
<path fill="#1d1d1b" d="
  M 183.31 205.03
  C 203.09 206.78 219.85 222.85 221.63 242.58
  Q 222.38 250.92 221.58 265.75
  C 220.49 286.12 215.10 311.53 192.24 317.98
  C 170.08 324.23 150.63 311.57 143.79 290.24
  Q 135.12 263.20 142.25 236.78
  C 147.23 218.36 163.53 203.27 183.31 205.03
  Z
  M 204.06 245.69
  Q 192.36 236.80 178.57 239.81
  C 168.76 241.96 158.07 250.39 156.97 261.13
  C 155.72 273.21 158.79 291.74 169.49 299.17
  C 182.50 308.20 202.16 296.93 205.97 283.67
  Q 210.30 268.62 207.74 251.24
  Q 207.29 248.14 204.06 245.69
  Z"
/>
<path fill="#1d1d1b" d="
  M 415.33 208.82
  Q 415.64 208.23 416.22 208.56
  Q 433.40 218.35 449.32 230.07
  Q 449.67 230.33 449.61 230.76
  L 448.83 236.15
  A 1.05 1.05 0.0 0 1 447.25 236.90
  L 412.47 215.94
  Q 411.77 215.52 412.15 214.81
  L 415.33 208.82
  Z"
/>
<path fill="#1d1d1b" d="
  M 459.39 266.39
  C 444.41 257.66 429.93 248.56 415.62 239.06
  Q 415.14 238.74 415.41 238.24
  L 418.46 232.51
  A 1.14 1.13 -59.2 0 1 420.09 232.09
  L 460.54 258.80
  A 1.76 1.74 19.9 0 1 461.32 260.44
  L 460.76 265.69
  Q 460.61 267.10 459.39 266.39
  Z"
/>
<path fill="#1d1d1b" d="
  M 413.39 259.08
  A 0.77 0.76 30.7 0 1 413.12 258.05
  L 416.31 252.50
  Q 416.96 251.39 418.05 252.06
  Q 440.02 265.65 461.49 280.52
  Q 462.22 281.03 462.83 281.71
  A 1.02 1.00 -61.2 0 1 463.06 282.52
  L 462.27 288.23
  A 0.64 0.64 0.0 0 1 461.30 288.69
  L 413.39 259.08
  Z"
/>
<path fill="#1d1d1b" d="
  M 419.21 284.37
  A 0.70 0.69 28.8 0 1 418.95 283.48
  L 421.77 277.75
  A 1.15 1.15 0.0 0 1 423.40 277.28
  Q 447.22 291.94 470.17 307.90
  A 1.60 1.58 -69.5 0 1 470.84 309.39
  L 470.25 314.51
  A 1.00 1.00 0.0 0 1 468.73 315.25
  L 419.21 284.37
  Z"
/>
<path fill="#1d1d1b" d="
  M 416.65 304.56
  A 1.06 1.05 30.0 0 1 416.28 303.19
  L 418.90 298.09
  A 1.51 1.51 0.0 0 1 421.04 297.50
  Q 445.41 312.47 468.60 327.88
  Q 470.61 329.22 472.45 330.78
  Q 473.00 331.24 472.54 331.79
  L 468.92 336.12
  Q 468.44 336.71 467.78 336.31
  Q 441.95 320.86 416.65 304.56
  Z"
/>
<path fill="#1d1d1b" d="
  M 433.30 343.77
  Q 432.84 343.51 433.06 343.02
  Q 434.12 340.75 435.45 338.22
  C 436.60 336.04 438.04 336.91 439.69 337.78
  Q 459.40 348.04 478.62 359.41
  A 0.89 0.89 0.0 0 1 478.96 360.57
  Q 477.54 363.37 474.97 365.13
  A 1.03 1.01 -49.0 0 1 473.93 365.21
  Q 453.35 354.98 433.30 343.77
  Z"
/>
<path fill="#1d1d1b" d="
  M 426.96 357.24
  A 0.73 0.73 0.0 0 1 426.66 356.27
  L 429.71 350.34
  A 0.75 0.75 0.0 0 1 430.72 350.01
  Q 450.12 359.80 468.45 371.49
  A 0.67 0.67 0.0 0 1 468.68 372.37
  Q 467.20 375.18 464.49 376.92
  A 1.04 1.03 42.5 0 1 463.44 376.96
  L 426.96 357.24
  Z"
/>
<path fill="#1d1d1b" d="
  M 420.43 371.92
  A 0.79 0.79 0.0 0 1 420.13 370.88
  L 423.15 365.09
  A 0.85 0.84 -61.8 0 1 424.29 364.74
  Q 440.42 373.30 455.45 383.66
  Q 455.92 383.98 455.70 384.51
  Q 454.57 387.10 452.22 388.71
  Q 451.74 389.04 451.22 388.78
  Q 435.56 380.82 420.43 371.92
  Z"
/>
<path fill="#1d1d1b" d="
  M 413.03 385.01
  A 0.35 0.35 0.0 0 1 412.90 384.54
  L 415.99 378.46
  A 0.65 0.65 0.0 0 1 416.86 378.17
  Q 428.83 384.03 439.67 391.80
  Q 440.29 392.25 439.75 392.80
  L 435.91 396.72
  A 0.84 0.83 -55.0 0 1 434.95 396.89
  Q 423.67 391.55 413.03 385.01
  Z"
/>
</svg>
