<?xml version="1.0" encoding="UTF-8" standalone="no"?>
<svg xmlns="http://www.w3.org/2000/svg" version="1.2" baseProfile="tiny" viewBox="0.00 0.00 512.00 512.00">
<path fill="#000000" d="
  M 240.32 0.00
  L 242.83 0.00
  Q 269.03 1.88 291.00 15.76
  Q 347.94 51.74 398.06 98.26
  C 412.91 112.05 427.82 125.79 442.61 139.64
  C 456.11 152.29 469.64 167.24 476.66 185.17
  Q 476.84 185.65 477.36 185.59
  Q 484.54 184.71 488.17 190.31
  C 497.17 204.22 500.29 224.21 500.26 240.51
  C 500.19 278.66 491.88 316.13 488.65 354.21
  C 486.37 381.09 484.62 399.97 484.87 423.69
  C 485.03 438.50 486.92 453.62 488.74 468.50
  Q 490.82 485.44 487.75 498.98
  C 486.53 504.36 481.05 502.00 478.79 498.92
  A 0.41 0.41 0.0 0 0 478.05 499.07
  C 476.37 506.60 471.51 508.28 464.05 508.86
  Q 428.43 511.60 392.68 512.00
  L 361.19 512.00
  Q 279.10 510.54 197.00 510.50
  Q 166.35 510.49 122.76 506.92
  Q 82.90 503.65 43.74 495.54
  Q 42.32 495.24 40.99 494.65
  Q 40.53 494.44 40.11 494.73
  C 35.73 497.68 29.26 497.62 25.68 493.85
  Q 23.61 491.67 22.12 485.56
  C 13.45 449.95 11.05 414.08 12.00 377.51
  C 13.73 310.55 21.79 244.05 17.48 177.00
  C 17.35 174.90 17.63 174.24 16.01 172.66
  C 10.11 166.89 13.67 162.13 19.25 158.27
  C 39.74 144.13 58.06 127.45 77.50 107.74
  C 99.93 85.00 131.78 52.62 162.33 29.84
  C 185.39 12.63 211.14 0.80 240.32 0.00
  Z
  M 219.94 28.19
  C 228.94 33.36 238.01 40.33 244.79 44.24
  Q 280.46 64.81 315.73 86.07
  Q 317.73 87.27 320.08 87.53
  Q 337.34 89.41 354.40 92.36
  A 0.26 0.26 0.0 0 0 354.62 91.91
  Q 323.98 64.93 289.44 43.08
  C 266.80 28.76 247.84 21.08 220.07 27.35
  A 0.46 0.45 -36.4 0 0 219.94 28.19
  Z
  M 276.67 83.47
  C 252.42 67.95 229.63 50.88 208.04 31.67
  A 0.79 0.79 0.0 0 0 207.22 31.54
  Q 196.03 36.19 185.68 42.51
  A 0.34 0.33 48.4 0 0 185.65 43.06
  Q 197.86 52.83 210.50 62.12
  C 220.71 69.62 232.06 75.77 243.19 82.24
  Q 244.98 83.28 247.05 83.33
  Q 261.85 83.70 276.45 84.17
  A 0.38 0.38 0.0 0 0 276.67 83.47
  Z
  M 218.29 81.77
  L 178.14 47.53
  A 0.47 0.47 0.0 0 0 177.55 47.52
  L 158.58 61.90
  A 0.42 0.42 0.0 0 0 158.57 62.57
  Q 174.33 74.82 193.00 81.48
  Q 195.86 82.49 199.17 82.49
  Q 208.83 82.48 217.87 82.85
  Q 219.64 82.92 218.29 81.77
  Z
  M 80.02 135.89
  C 69.66 145.54 59.96 153.50 49.13 161.35
  Q 48.58 161.75 49.06 162.21
  Q 67.24 179.86 87.67 194.84
  C 92.84 198.63 97.71 201.33 103.35 203.55
  A 0.41 0.40 -81.4 0 0 103.90 203.14
  L 102.13 180.48
  Q 102.10 180.08 101.74 179.92
  C 94.53 176.60 69.31 154.50 70.67 147.14
  C 71.28 143.82 76.12 140.55 79.04 144.03
  Q 88.93 155.81 101.33 164.84
  A 0.44 0.44 0.0 0 0 102.03 164.48
  C 102.02 135.15 109.36 98.18 142.24 88.49
  Q 156.53 84.28 171.00 83.51
  A 0.55 0.55 0.0 0 0 171.25 82.48
  Q 161.05 76.42 152.20 68.49
  A 0.99 0.98 -45.2 0 0 150.88 68.50
  C 126.86 90.57 103.89 113.65 80.02 135.89
  Z
  M 380.05 119.71
  C 304.82 111.37 229.70 102.93 154.44 111.48
  C 125.41 114.78 123.49 158.77 123.71 180.00
  Q 124.06 213.63 127.16 247.12
  C 127.91 255.13 128.14 263.49 128.67 271.70
  Q 128.70 272.21 129.09 272.56
  Q 151.56 292.80 174.69 312.31
  C 204.86 337.77 251.92 372.15 290.67 339.04
  A 1.41 1.40 -11.8 0 0 291.11 338.37
  Q 292.80 332.39 299.12 331.85
  Q 299.68 331.80 300.10 331.44
  C 330.91 305.33 360.46 271.14 390.05 240.63
  Q 390.43 240.24 390.28 239.72
  C 385.33 222.77 384.97 205.28 384.44 187.75
  C 383.77 165.37 381.88 142.98 380.94 120.66
  Q 380.90 119.81 380.05 119.71
  Z
  M 400.13 135.26
  A 0.19 0.19 0.0 0 0 399.80 135.41
  L 403.20 162.58
  A 0.46 0.45 -18.2 0 0 403.88 162.92
  Q 407.35 160.96 410.36 163.66
  C 422.04 174.17 433.52 184.98 445.75 194.85
  Q 446.11 195.14 446.55 195.00
  L 451.83 193.33
  A 0.37 0.37 0.0 0 0 452.00 192.73
  Q 426.79 163.34 400.13 135.26
  Z
  M 36.90 179.29
  C 60.85 205.53 85.39 231.26 111.07 255.82
  A 0.21 0.21 0.0 0 0 111.43 255.64
  L 105.22 215.16
  Q 105.14 214.66 104.64 214.59
  C 94.89 213.28 87.18 207.58 79.59 201.07
  Q 60.33 184.55 42.72 166.27
  Q 42.36 165.89 41.91 166.15
  L 34.71 170.34
  Q 34.10 170.69 34.23 171.38
  C 34.73 174.18 34.88 177.07 36.90 179.29
  Z
  M 432.55 201.78
  L 405.00 173.25
  Q 404.47 172.70 404.57 173.46
  C 406.57 189.12 409.77 204.82 410.06 220.62
  A 0.41 0.41 0.0 0 0 410.75 220.91
  Q 420.94 211.17 432.43 203.01
  A 0.82 0.82 0.0 0 0 432.55 201.78
  Z
  M 42.13 215.64
  A 0.34 0.34 0.0 0 0 41.53 215.89
  Q 45.54 260.00 44.56 301.94
  C 43.33 354.94 40.37 408.27 42.06 460.86
  A 0.36 0.36 0.0 0 0 42.66 461.11
  Q 85.71 422.39 130.38 385.23
  C 147.22 371.22 163.06 357.46 184.45 350.94
  A 0.60 0.60 0.0 0 0 184.62 349.88
  Q 163.52 335.09 144.44 318.08
  C 108.63 286.14 72.96 252.46 42.13 215.64
  Z
  M 364.34 302.25
  C 351.64 317.36 337.47 330.90 323.41 344.96
  A 0.72 0.72 0.0 0 0 323.52 346.07
  C 359.60 370.05 394.97 395.52 427.81 423.93
  Q 445.04 438.84 459.88 455.93
  A 0.34 0.34 0.0 0 0 460.48 455.66
  C 458.09 437.96 458.08 416.89 459.57 401.31
  Q 464.27 352.36 468.93 303.41
  C 472.10 270.16 473.06 247.12 470.09 215.71
  A 0.47 0.46 81.7 0 0 469.54 215.29
  L 462.61 216.63
  Q 462.01 216.75 461.63 217.23
  Q 458.81 220.82 454.39 219.29
  Q 453.88 219.12 453.39 219.33
  Q 437.68 226.07 424.70 237.20
  C 402.24 256.45 385.53 277.02 364.34 302.25
  Z
  M 279.67 485.54
  C 337.51 483.25 394.62 478.76 451.66 485.48
  A 0.55 0.55 0.0 0 0 452.27 484.84
  Q 450.10 472.73 441.58 463.66
  Q 426.36 447.45 408.31 434.44
  Q 390.09 421.31 353.00 391.55
  C 338.63 380.02 323.66 369.22 308.97 358.14
  A 0.78 0.78 0.0 0 0 308.03 358.13
  C 290.85 370.95 271.54 382.81 248.98 378.55
  Q 223.71 373.78 201.59 360.55
  A 0.71 0.70 -70.5 0 0 200.53 361.06
  Q 199.78 366.35 195.27 369.55
  Q 164.28 391.54 133.11 413.26
  C 104.21 433.40 78.16 457.13 49.59 477.64
  A 0.43 0.43 0.0 0 0 49.81 478.41
  Q 73.92 480.10 98.27 481.72
  Q 158.17 485.73 218.19 485.90
  C 238.68 485.96 259.19 486.35 279.67 485.54
  Z"
/>
<path fill="#000000" d="
  M 219.97 150.97
  C 228.60 150.70 245.09 151.72 245.00 164.27
  C 244.96 169.42 241.65 170.88 236.91 171.26
  C 227.24 172.03 217.36 170.28 208.34 169.28
  C 191.62 167.43 174.08 167.86 158.00 166.77
  C 146.79 166.01 147.11 152.82 157.98 152.04
  C 178.73 150.56 199.24 151.62 219.97 150.97
  Z"
/>
<path fill="#000000" d="
  M 210.56 203.44
  Q 213.82 203.58 225.74 202.80
  C 249.67 201.25 273.66 198.36 298.00 199.55
  C 305.57 199.92 322.60 201.41 328.33 206.65
  C 334.77 212.53 330.24 220.91 322.75 222.97
  C 289.22 232.18 254.85 222.38 220.87 223.95
  Q 200.41 224.90 186.75 225.18
  C 175.95 225.41 157.84 224.69 150.03 217.25
  C 146.83 214.21 148.23 210.62 151.89 208.83
  Q 157.19 206.24 162.56 205.51
  Q 185.60 202.39 210.56 203.44
  Z"
/>
</svg>
