<?xml version="1.0" encoding="UTF-8" standalone="no"?>
<svg xmlns="http://www.w3.org/2000/svg" version="1.2" baseProfile="tiny" viewBox="0.00 0.00 512.00 512.00">
<path fill="#000000" d="
  M 281.66 354.46
  A 0.63 0.63 0.0 0 0 280.40 354.41
  Q 279.28 362.37 278.91 370.15
  C 278.79 372.55 277.81 375.27 277.79 378.51
  C 277.76 384.44 274.25 392.87 274.25 400.28
  Q 274.25 422.58 274.26 444.89
  C 274.26 453.47 270.19 463.14 266.81 470.94
  C 263.65 478.23 248.45 481.10 241.57 480.84
  C 235.39 480.60 230.63 472.01 229.36 466.77
  Q 229.23 466.23 229.65 465.86
  Q 235.49 460.81 243.34 461.30
  A 0.75 0.75 0.0 0 0 244.10 460.80
  Q 246.26 454.85 248.71 449.11
  Q 249.74 446.71 249.75 444.16
  C 249.87 425.39 250.65 406.24 248.78 387.93
  A 1.54 1.54 0.0 0 0 246.70 386.65
  C 236.74 390.51 237.71 403.80 232.20 411.55
  Q 221.46 426.63 210.24 441.38
  Q 209.91 441.81 209.38 441.95
  Q 204.45 443.20 200.49 446.35
  Q 200.05 446.70 199.50 446.71
  C 187.07 447.02 168.28 448.37 156.07 441.41
  A 1.69 1.69 0.0 0 1 155.40 440.71
  Q 149.30 428.86 147.22 421.53
  C 146.00 417.24 146.77 401.96 155.33 405.60
  C 158.18 406.82 159.43 410.15 159.67 413.08
  A 0.87 0.86 -6.3 0 0 160.65 413.86
  C 168.82 412.70 170.69 421.08 178.61 421.08
  C 189.51 421.08 197.41 415.26 205.38 408.33
  Q 205.76 408.00 205.90 407.52
  C 207.33 402.81 210.35 398.91 211.31 394.21
  Q 212.46 388.64 214.52 383.36
  C 218.22 373.89 216.61 360.02 209.98 352.14
  Q 209.65 351.75 209.14 351.75
  C 200.80 351.76 191.69 352.23 184.06 350.94
  Q 172.30 348.94 161.57 343.52
  A 1.49 1.44 2.3 0 1 160.88 342.80
  Q 159.72 340.21 156.91 339.65
  A 1.42 1.39 -11.6 0 1 156.04 339.09
  Q 151.24 332.22 145.83 325.83
  Q 144.07 323.76 143.03 321.12
  Q 138.90 310.61 132.48 301.36
  A 0.79 0.77 -17.1 0 0 131.84 301.03
  Q 123.30 301.00 115.69 299.85
  C 103.96 298.08 95.99 306.16 86.46 309.98
  Q 80.29 312.45 74.22 308.45
  Q 73.84 308.20 73.83 307.75
  C 73.53 298.55 82.89 295.97 89.21 292.02
  Q 95.93 287.82 102.71 283.70
  Q 104.51 282.60 106.65 282.47
  C 117.45 281.80 128.31 279.87 139.39 281.10
  C 145.15 281.74 153.29 290.57 155.75 294.52
  Q 166.85 312.38 172.47 320.51
  C 177.38 327.62 198.71 328.07 207.99 327.60
  Q 208.46 327.58 208.80 327.25
  Q 210.52 325.58 210.82 323.73
  C 212.04 316.28 213.78 310.62 219.14 305.20
  Q 225.46 298.82 231.14 291.83
  A 0.45 0.45 0.0 0 0 230.77 291.09
  Q 222.26 291.37 213.90 289.40
  C 209.88 288.46 206.18 289.37 202.49 288.06
  C 198.99 286.82 194.19 288.82 191.64 286.56
  Q 191.27 286.23 190.77 286.22
  C 178.99 285.96 170.10 281.78 159.55 276.31
  Q 157.84 275.42 156.40 273.61
  C 152.96 269.30 148.25 266.42 144.53 262.34
  A 1.13 1.12 27.2 0 1 144.24 261.45
  C 144.36 260.39 144.36 260.06 143.67 259.22
  C 134.77 248.55 132.27 242.00 128.78 227.74
  Q 128.64 227.19 127.87 226.50
  A 1.67 1.67 0.0 0 1 127.37 225.69
  Q 125.61 219.22 123.59 212.83
  C 122.97 210.86 121.06 209.33 120.85 207.37
  Q 120.46 203.67 120.13 199.98
  C 119.95 198.01 118.75 196.21 118.75 194.42
  Q 118.76 181.60 118.74 168.78
  C 118.74 161.23 120.50 154.33 121.92 146.99
  Q 122.55 143.77 124.14 140.93
  Q 127.54 134.87 130.94 128.82
  C 131.88 127.16 133.52 126.23 134.51 124.66
  Q 137.26 120.28 141.70 116.96
  C 143.77 115.41 144.15 113.50 143.96 110.82
  C 142.87 95.30 143.89 79.70 144.26 63.99
  C 144.40 58.03 148.50 46.93 154.39 44.30
  Q 158.90 42.30 163.66 43.79
  C 167.75 45.08 169.16 49.02 172.76 50.77
  C 176.19 52.44 180.08 53.34 183.28 54.95
  Q 191.99 59.34 200.86 63.40
  Q 202.66 64.22 203.98 65.88
  C 207.54 70.36 214.98 78.09 220.91 78.73
  C 226.91 79.39 232.94 81.05 238.81 80.99
  Q 255.80 80.83 272.80 80.43
  C 275.45 80.37 278.70 81.14 281.69 80.97
  A 1.08 1.08 0.0 0 0 282.52 80.50
  Q 284.28 77.87 286.74 78.47
  Q 292.57 79.89 295.23 79.65
  Q 313.09 78.08 330.65 74.58
  C 335.42 73.62 339.76 73.61 344.48 70.74
  Q 346.03 69.80 349.08 70.09
  A 1.33 1.32 28.7 0 0 349.98 69.83
  C 357.19 64.26 363.58 57.99 370.53 52.14
  C 372.86 50.18 374.63 47.84 376.92 46.08
  Q 386.58 38.63 396.47 31.51
  C 399.34 29.45 405.54 28.74 408.14 31.56
  C 414.49 38.44 408.54 55.95 406.32 64.29
  C 405.41 67.70 405.36 71.88 403.98 75.69
  Q 403.81 76.17 404.02 76.64
  Q 404.74 78.26 403.18 79.12
  A 0.78 0.77 68.2 0 0 402.81 79.99
  Q 403.91 84.12 401.95 87.73
  A 1.97 1.91 -32.8 0 0 401.71 88.77
  C 401.84 91.22 402.77 94.78 400.80 96.60
  A 1.08 1.05 67.9 0 0 400.45 97.46
  L 400.80 104.31
  A 1.30 1.26 -31.3 0 1 400.60 105.09
  L 399.80 106.35
  Q 399.48 106.86 399.87 107.33
  Q 404.89 113.30 412.24 115.85
  A 1.63 1.58 -8.3 0 1 412.99 116.39
  Q 417.48 122.23 423.32 126.73
  A 1.62 1.61 -78.8 0 1 423.91 127.62
  Q 424.92 131.43 427.98 133.88
  Q 428.38 134.21 428.54 134.70
  Q 433.79 150.90 437.25 167.55
  C 439.34 177.62 438.24 189.49 438.25 199.80
  C 438.26 213.55 431.74 223.08 424.15 234.96
  Q 422.43 237.66 419.91 239.67
  C 407.81 249.33 395.78 259.91 382.45 267.83
  C 377.51 270.76 371.53 272.59 365.82 274.87
  C 357.72 278.11 349.08 278.99 340.88 282.23
  C 329.32 286.79 317.12 292.95 304.57 293.59
  A 0.82 0.81 71.5 0 0 303.94 294.86
  Q 305.36 296.98 307.90 297.32
  Q 308.36 297.39 308.61 297.78
  C 310.37 300.45 312.93 301.72 314.57 304.29
  C 316.94 308.01 320.85 311.34 322.47 315.28
  C 327.46 327.41 334.35 338.68 340.69 350.13
  C 341.40 351.40 341.66 352.97 342.24 354.02
  C 352.13 371.99 366.88 387.59 386.83 393.65
  C 390.35 394.72 393.46 393.71 396.20 391.69
  C 403.62 386.21 407.82 378.55 418.74 378.69
  Q 419.31 378.70 419.68 379.14
  C 424.35 384.76 422.49 394.50 420.03 400.30
  Q 417.84 405.47 409.48 415.93
  Q 409.19 416.29 408.73 416.33
  Q 405.62 416.57 403.81 419.12
  Q 403.47 419.61 402.87 419.60
  Q 401.13 419.55 399.77 420.44
  Q 399.35 420.72 398.85 420.76
  Q 387.66 421.86 383.25 420.97
  Q 370.02 418.31 358.78 411.25
  C 353.14 407.71 347.47 401.94 341.82 396.96
  C 333.00 389.20 325.81 379.14 319.73 369.16
  Q 318.04 366.37 316.55 361.97
  Q 313.79 353.77 309.22 346.48
  A 0.50 0.50 0.0 0 0 308.30 346.71
  Q 308.15 348.81 306.00 349.20
  A 1.82 1.81 -20.9 0 0 304.77 351.94
  Q 306.00 353.91 305.72 356.21
  A 1.23 1.21 27.5 0 0 306.04 357.19
  Q 307.50 358.74 306.92 361.03
  A 1.78 1.77 42.9 0 0 306.96 362.04
  C 308.64 366.75 308.91 371.82 310.78 376.25
  C 314.51 385.09 316.55 395.18 320.84 403.47
  C 325.12 411.74 330.06 418.34 333.59 427.96
  Q 333.76 428.42 334.16 428.72
  C 339.88 432.95 351.67 434.28 353.40 441.86
  A 1.76 1.73 -72.9 0 0 353.84 442.71
  C 356.98 446.09 352.07 455.77 349.58 458.59
  Q 349.23 458.99 348.70 459.05
  Q 345.91 459.40 343.57 460.88
  Q 343.11 461.17 342.57 461.14
  C 330.30 460.36 321.62 454.56 312.91 446.39
  Q 311.01 444.61 309.88 442.07
  C 300.02 419.88 287.62 401.17 282.95 377.75
  C 282.47 375.31 283.13 373.16 282.92 370.76
  Q 282.19 362.32 281.66 354.46
  Z
  M 388.81 57.04
  L 379.59 64.26
  A 0.87 0.87 0.0 0 0 379.47 65.51
  C 381.07 67.37 383.77 71.48 386.58 71.06
  A 0.64 0.64 0.0 0 0 387.12 70.48
  C 387.45 66.19 390.58 60.79 388.98 57.08
  A 0.11 0.11 0.0 0 0 388.81 57.04
  Z
  M 182.20 75.47
  L 165.79 68.00
  Q 164.80 67.55 164.78 68.64
  Q 164.64 78.10 164.90 87.70
  C 164.99 91.02 164.31 97.06 165.32 101.89
  A 0.64 0.63 -41.1 0 0 166.54 101.97
  Q 169.09 95.07 174.09 89.69
  Q 174.44 89.32 174.50 88.82
  C 174.85 85.86 177.37 85.91 178.18 83.31
  C 179.09 80.41 179.93 78.51 182.34 76.59
  A 0.66 0.66 0.0 0 0 182.20 75.47
  Z
  M 373.56 70.16
  C 370.19 68.84 369.07 71.37 368.97 74.11
  Q 368.95 74.61 369.28 74.99
  C 373.02 79.36 376.79 84.39 381.82 86.76
  A 0.59 0.59 0.0 0 0 382.62 86.43
  C 385.32 79.22 374.72 77.59 374.05 70.80
  Q 374.00 70.33 373.56 70.16
  Z
  M 200.62 86.93
  C 198.97 85.83 193.65 81.17 192.22 82.98
  Q 191.94 83.34 192.31 83.62
  C 194.21 85.04 197.98 88.69 200.51 87.79
  A 0.48 0.48 0.0 0 0 200.62 86.93
  Z
  M 351.83 84.46
  Q 353.10 85.00 353.29 83.62
  A 0.74 0.74 0.0 0 0 352.35 82.80
  Q 351.33 83.08 351.53 84.10
  A 0.52 0.50 -85.7 0 0 351.83 84.46
  Z
  M 363.31 85.76
  Q 362.06 89.02 359.68 91.60
  A 1.04 1.01 -33.1 0 0 359.45 92.62
  Q 359.80 93.67 360.89 94.16
  Q 361.30 94.34 361.56 94.70
  C 363.82 97.77 365.67 101.61 369.77 102.64
  Q 370.18 102.74 370.43 102.40
  L 373.69 97.79
  Q 374.01 97.35 373.79 96.85
  C 371.97 92.70 367.89 91.80 366.65 87.60
  Q 366.47 87.00 365.90 86.72
  L 363.64 85.63
  A 0.24 0.24 0.0 0 0 363.31 85.76
  Z
  M 342.87 90.64
  C 338.46 86.33 338.03 91.95 336.47 94.29
  Q 333.70 98.41 332.05 103.08
  C 330.46 107.55 323.81 111.69 328.37 116.88
  A 1.04 1.02 66.3 0 0 329.24 117.23
  C 332.25 116.94 333.99 113.31 335.19 110.72
  C 336.41 108.09 338.48 106.61 339.61 103.72
  C 341.04 100.05 343.80 97.29 345.69 93.85
  A 0.63 0.62 -55.6 0 0 345.55 93.06
  Q 344.08 91.82 342.87 90.64
  Z
  M 326.89 90.45
  C 317.42 87.81 307.81 99.47 317.09 105.92
  A 0.83 0.82 33.1 0 0 318.26 105.68
  L 327.19 91.20
  A 0.51 0.50 23.4 0 0 326.89 90.45
  Z
  M 206.92 94.49
  Q 209.49 94.05 211.81 92.82
  A 0.45 0.45 0.0 0 0 211.72 91.99
  Q 208.99 91.26 206.32 92.22
  A 1.18 1.18 0.0 0 0 206.92 94.49
  Z
  M 269.66 93.14
  Q 270.71 93.13 270.65 94.18
  C 270.41 98.34 268.53 100.84 266.38 104.21
  Q 265.48 105.62 266.82 106.62
  L 270.78 109.54
  Q 272.35 110.70 273.35 109.02
  C 276.60 103.57 281.99 98.72 283.78 92.47
  A 0.56 0.56 0.0 0 0 283.24 91.75
  L 252.26 91.75
  A 1.26 1.26 0.0 0 0 251.81 94.18
  L 254.60 95.24
  Q 254.98 95.39 255.11 95.77
  Q 256.25 99.00 259.53 99.07
  A 1.35 1.33 24.2 0 0 260.45 98.73
  C 263.38 96.12 265.37 93.18 269.66 93.14
  Z
  M 305.19 91.74
  C 304.03 92.49 304.65 93.37 305.76 92.90
  A 0.43 0.43 0.0 0 0 305.98 92.32
  L 305.79 91.91
  A 0.41 0.41 0.0 0 0 305.19 91.74
  Z
  M 191.27 98.63
  L 186.93 92.83
  A 1.22 1.22 0.0 0 0 184.97 92.84
  Q 178.17 102.13 173.57 112.62
  Q 173.38 113.06 173.71 113.40
  L 177.10 116.95
  A 0.86 0.85 36.5 0 0 178.48 116.75
  C 181.83 110.19 187.04 104.78 191.27 98.77
  A 0.12 0.12 0.0 0 0 191.27 98.63
  Z
  M 234.34 94.52
  C 229.81 96.17 224.95 94.21 220.52 92.97
  C 217.96 92.25 215.55 92.44 213.01 92.74
  Q 212.52 92.80 212.35 93.26
  L 210.96 97.09
  A 0.58 0.57 34.8 0 0 211.07 97.67
  Q 216.41 103.81 223.63 107.49
  Q 224.18 107.78 224.74 107.51
  C 227.19 106.38 227.88 103.75 229.41 102.18
  Q 232.26 99.24 235.34 96.07
  A 0.95 0.95 0.0 0 0 234.34 94.52
  Z
  M 292.33 99.59
  C 291.58 100.96 291.25 102.30 290.43 103.46
  Q 284.44 111.92 282.24 117.03
  Q 281.52 118.70 283.43 120.46
  A 1.00 0.97 -24.2 0 0 284.15 120.72
  C 287.13 120.55 290.19 113.92 291.76 111.51
  C 293.14 109.39 295.76 106.75 297.12 103.74
  A 0.64 0.64 0.0 0 0 297.00 103.02
  L 293.52 99.43
  A 0.75 0.75 0.0 0 0 292.33 99.59
  Z
  M 248.56 107.94
  Q 246.19 105.80 243.10 103.17
  A 1.26 1.25 24.1 0 0 241.04 103.95
  C 240.68 106.48 236.28 111.10 234.57 113.61
  A 2.24 2.24 0.0 0 0 235.15 116.73
  L 240.94 120.72
  A 1.31 1.31 0.0 0 0 242.91 120.10
  C 244.19 116.68 246.82 114.53 248.96 111.71
  Q 250.50 109.69 248.56 107.94
  Z
  M 352.98 104.29
  L 341.49 125.23
  Q 341.22 125.73 341.65 126.08
  C 343.35 127.46 352.45 133.92 353.96 130.96
  Q 357.70 123.67 361.83 116.55
  C 364.38 112.17 360.27 110.52 357.84 108.16
  A 1.69 1.65 17.7 0 1 357.34 107.22
  Q 356.79 103.97 353.40 104.03
  A 0.50 0.48 12.3 0 0 352.98 104.29
  Z
  M 378.20 106.03
  L 376.43 109.90
  A 0.11 0.11 0.0 0 0 376.48 110.05
  L 376.50 110.05
  A 2.06 1.73 -65.4 0 0 378.93 108.90
  L 379.08 108.57
  A 2.06 1.73 -65.4 0 0 378.37 105.98
  L 378.35 105.97
  A 0.11 0.11 0.0 0 0 378.20 106.03
  Z
  M 204.00 109.07
  A 0.21 0.21 0.0 0 0 203.76 108.85
  L 202.75 109.01
  A 0.50 0.50 0.0 0 0 202.70 109.98
  Q 203.91 110.30 204.00 109.07
  Z
  M 213.64 116.88
  C 212.52 115.60 208.88 113.23 206.83 111.75
  Q 206.43 111.45 206.15 111.87
  Q 202.18 117.74 195.16 123.17
  Q 191.46 126.03 189.29 131.48
  Q 189.05 132.08 189.61 132.39
  L 201.60 139.02
  Q 202.12 139.32 202.41 138.79
  Q 207.26 129.76 213.28 121.48
  Q 215.27 118.74 213.64 116.88
  Z
  M 304.66 112.80
  C 302.24 118.78 298.95 123.30 296.33 128.84
  A 0.74 0.74 0.0 0 0 296.67 129.82
  L 302.66 132.81
  Q 303.13 133.04 303.32 132.55
  Q 305.72 126.58 309.22 121.20
  C 311.89 117.10 309.22 113.86 305.49 112.44
  A 0.65 0.65 0.0 0 0 304.66 112.80
  Z
  M 162.46 114.60
  L 162.53 114.10
  A 0.78 0.78 0.0 0 0 161.25 113.41
  L 160.74 113.85
  A 0.60 0.60 0.0 0 0 161.02 114.89
  L 161.83 115.05
  A 0.53 0.53 0.0 0 0 162.46 114.60
  Z
  M 258.59 117.59
  C 256.82 120.35 252.76 125.32 252.54 127.86
  Q 252.50 128.34 252.74 128.76
  Q 254.13 131.19 256.36 132.74
  A 2.03 2.03 0.0 0 0 259.30 132.05
  L 264.15 123.20
  Q 264.42 122.71 264.02 122.31
  L 259.24 117.52
  A 0.42 0.42 0.0 0 0 258.59 117.59
  Z
  M 371.35 119.96
  C 369.68 125.54 366.39 130.44 364.34 135.91
  Q 364.21 136.26 364.48 136.53
  L 368.02 140.09
  A 0.69 0.69 0.0 0 0 369.14 139.88
  C 372.05 133.30 377.91 130.14 376.21 121.61
  Q 376.13 121.20 375.73 121.06
  L 371.79 119.73
  A 0.34 0.34 0.0 0 0 371.35 119.96
  Z
  M 175.8567 123.4033
  A 0.74 0.61 135.0 0 0 176.8113 123.3113
  A 0.74 0.61 135.0 0 0 176.9033 122.3567
  A 0.74 0.61 135.0 0 0 175.9487 122.4487
  A 0.74 0.61 135.0 0 0 175.8567 123.4033
  Z
  M 158.07 123.36
  C 154.44 128.72 150.53 132.79 149.10 139.50
  A 0.61 0.61 0.0 0 0 149.97 140.17
  C 152.95 138.68 153.54 134.55 155.97 132.13
  A 1.72 1.70 -17.3 0 0 156.42 131.28
  C 157.06 128.14 159.58 126.82 160.72 124.21
  A 1.14 1.14 0.0 0 0 160.06 122.68
  C 158.62 122.16 158.62 122.55 158.07 123.36
  Z
  M 317.80 146.65
  L 319.74 147.25
  Q 320.30 147.42 320.28 146.83
  C 319.96 140.08 322.43 135.45 324.13 129.07
  Q 324.31 128.42 323.64 128.33
  L 322.41 128.17
  Q 321.90 128.10 321.55 127.70
  L 320.15 126.11
  A 0.80 0.80 0.0 0 0 318.86 126.23
  L 313.01 136.17
  A 0.81 0.81 0.0 0 0 313.22 137.23
  Q 317.75 140.70 315.85 146.02
  Q 315.68 146.49 316.14 146.70
  Q 316.50 146.86 316.84 146.70
  Q 317.31 146.49 317.80 146.65
  Z
  M 232.64 130.74
  C 230.03 129.46 227.95 126.84 225.08 127.00
  Q 224.54 127.03 224.31 127.52
  C 221.62 133.15 217.32 137.91 215.24 143.76
  C 213.92 147.48 220.12 149.44 222.57 149.94
  Q 223.16 150.06 223.24 149.46
  C 224.32 141.70 230.67 138.22 232.80 131.10
  A 0.30 0.30 0.0 0 0 232.64 130.74
  Z
  M 396.18 134.42
  L 397.91 133.01
  A 0.69 0.68 57.3 0 0 398.08 132.18
  Q 395.72 127.45 390.52 126.92
  A 0.67 0.67 0.0 0 0 389.81 127.77
  C 390.95 131.78 390.56 134.70 394.96 136.68
  Q 395.75 137.04 395.75 136.17
  L 395.75 135.32
  Q 395.75 134.77 396.18 134.42
  Z
  M 272.96 131.14
  Q 269.62 138.86 264.80 145.76
  Q 264.41 146.33 265.10 146.35
  C 268.84 146.48 273.84 147.31 277.35 145.97
  Q 277.92 145.75 277.58 145.24
  Q 273.75 139.54 277.50 133.71
  Q 277.82 133.21 277.30 132.93
  L 273.56 130.94
  A 0.43 0.43 0.0 0 0 272.96 131.14
  Z
  M 172.70 133.93
  L 170.49 132.56
  A 1.11 1.11 0.0 0 0 168.96 132.91
  L 168.33 133.94
  A 18.20 1.64 -58.2 0 0 160.13 150.27
  L 161.44 151.09
  A 18.20 1.64 -58.2 0 0 172.42 136.48
  L 173.06 135.45
  A 1.11 1.11 0.0 0 0 172.70 133.93
  Z
  M 334.20 139.70
  Q 332.38 141.72 331.42 144.46
  A 0.60 0.59 -80.5 0 0 331.98 145.25
  L 346.31 145.25
  Q 346.97 145.25 346.98 144.58
  C 347.04 141.93 343.55 141.77 341.50 141.66
  A 1.28 1.27 -19.8 0 1 340.60 141.24
  Q 338.66 139.13 336.03 138.03
  Q 335.58 137.84 335.21 138.16
  Q 334.83 138.48 334.66 138.95
  Q 334.50 139.36 334.20 139.70
  Z
  M 250.06 142.44
  Q 247.58 140.91 244.83 139.79
  Q 244.42 139.62 244.17 139.99
  L 240.52 145.38
  A 1.15 1.15 0.0 0 0 242.12 146.98
  C 244.03 145.69 249.05 146.61 251.28 146.70
  A 0.88 0.88 0.0 0 0 252.20 145.76
  Q 252.03 143.65 250.06 142.44
  Z
  M 405.06 141.16
  Q 402.28 144.81 400.76 149.13
  Q 400.59 149.62 400.90 150.04
  C 403.00 152.92 405.34 158.43 408.67 159.62
  A 0.73 0.72 -59.8 0 0 409.48 159.40
  C 413.61 154.36 409.06 145.39 405.79 141.16
  Q 405.43 140.68 405.06 141.16
  Z
  M 287.68 143.44
  Q 287.07 143.89 286.78 144.57
  Q 286.52 145.19 287.19 145.21
  L 293.74 145.48
  A 0.71 0.71 0.0 0 0 293.91 144.08
  Q 292.07 143.70 291.15 141.99
  A 0.99 0.98 -12.3 0 0 290.33 141.47
  Q 288.97 141.39 288.35 142.64
  Q 288.11 143.12 287.68 143.44
  Z
  M 382.18 142.07
  Q 379.98 145.19 378.48 148.20
  Q 377.69 149.76 377.58 151.45
  A 1.16 1.14 -65.2 0 0 377.90 152.34
  L 381.23 155.76
  Q 381.62 156.16 382.12 155.90
  Q 382.80 155.54 382.72 154.60
  A 1.16 1.14 65.6 0 1 383.06 153.67
  Q 385.16 151.60 386.07 148.83
  A 1.55 1.54 -49.5 0 0 385.98 147.65
  L 383.22 142.15
  A 0.61 0.61 0.0 0 0 382.18 142.07
  Z
  M 196.03 150.09
  C 191.55 147.58 187.67 143.38 182.60 142.96
  Q 182.07 142.92 181.80 143.38
  C 178.81 148.61 175.74 153.36 173.54 159.00
  Q 173.35 159.50 173.80 159.80
  C 176.78 161.75 182.75 167.31 186.37 165.03
  Q 189.84 162.85 193.55 161.08
  Q 193.97 160.87 193.97 160.40
  Q 193.90 155.31 196.24 150.79
  A 0.52 0.52 0.0 0 0 196.03 150.09
  Z
  M 360.04 144.62
  Q 359.20 146.43 359.58 148.39
  A 2.30 2.30 0.0 0 0 362.52 150.14
  C 365.91 149.08 362.94 144.88 360.69 144.31
  Q 360.23 144.20 360.04 144.62
  Z
  M 155.28 159.84
  Q 154.12 159.49 153.71 160.45
  Q 151.01 166.73 145.21 182.70
  C 143.87 186.37 143.35 193.12 145.92 195.93
  A 0.48 0.47 -57.5 0 0 146.72 195.75
  Q 148.61 189.86 153.52 186.02
  A 0.75 0.75 0.0 0 0 153.77 185.24
  C 151.39 176.91 153.77 169.07 157.32 161.01
  Q 157.53 160.52 157.22 160.10
  Q 156.80 159.54 156.12 159.81
  A 1.31 1.27 -46.0 0 1 155.28 159.84
  Z
  M 238.25 268.16
  C 264.22 268.92 291.35 270.79 318.14 269.79
  C 327.28 269.45 336.32 265.87 344.46 262.07
  C 348.57 260.15 356.39 258.44 358.87 254.42
  Q 368.06 239.48 373.18 222.70
  C 374.73 217.63 374.75 203.73 373.22 198.64
  Q 368.68 183.45 362.88 168.59
  Q 362.68 168.07 362.15 167.89
  L 357.44 166.32
  Q 356.99 166.17 356.92 165.69
  Q 356.15 160.47 350.71 161.33
  Q 350.22 161.40 349.80 161.14
  C 347.83 159.89 346.03 159.25 343.72 160.32
  Q 341.72 161.25 341.00 161.25
  Q 327.32 161.25 313.63 161.25
  C 309.18 161.25 306.26 163.81 301.20 163.55
  C 276.46 162.26 249.87 167.87 222.86 167.23
  C 220.59 167.18 218.93 168.35 216.63 168.73
  C 211.88 169.53 204.04 171.29 200.28 174.36
  Q 189.43 183.23 180.94 194.43
  Q 178.57 197.55 178.00 201.99
  Q 176.18 216.28 175.84 228.65
  C 175.52 240.36 187.62 255.68 196.15 262.88
  Q 196.53 263.20 197.02 263.27
  C 210.57 265.13 224.62 267.76 238.25 268.16
  Z
  M 393.15 161.46
  L 389.98 167.79
  Q 389.72 168.31 390.20 168.63
  L 391.79 169.69
  Q 392.15 169.93 392.34 170.32
  Q 393.72 173.16 395.95 175.31
  A 0.98 0.97 -48.8 0 0 397.39 175.21
  C 401.09 170.54 397.65 164.36 393.56 161.36
  Q 393.29 161.16 393.15 161.46
  Z
  M 164.16 184.38
  Q 161.99 186.27 159.99 188.27
  Q 158.61 189.64 158.08 191.79
  C 156.14 199.55 148.01 213.48 149.67 220.95
  Q 152.59 234.16 160.94 245.19
  A 0.53 0.52 -76.6 0 0 161.83 244.64
  C 154.14 228.96 156.34 201.27 167.50 187.54
  A 0.87 0.87 0.0 0 0 167.63 186.64
  L 166.10 183.00
  A 1.04 1.00 48.1 0 1 166.13 182.13
  L 168.75 177.02
  A 1.28 1.21 -2.8 0 1 169.21 176.54
  Q 171.98 174.93 173.33 171.96
  A 0.54 0.54 0.0 0 0 172.91 171.20
  Q 170.84 170.92 169.52 169.35
  A 0.60 0.60 0.0 0 0 168.55 169.43
  Q 167.33 171.44 166.36 175.27
  Q 165.30 179.42 164.57 183.65
  Q 164.50 184.09 164.16 184.38
  Z
  M 385.18 177.41
  L 383.96 186.89
  A 1.43 1.42 70.6 0 0 386.40 188.06
  C 387.64 186.76 390.61 185.28 389.28 182.71
  Q 387.49 179.28 385.76 177.23
  Q 385.27 176.65 385.18 177.41
  Z
  M 407.77 182.32
  Q 405.54 184.69 404.29 187.71
  A 1.56 1.56 0.0 0 0 406.38 189.73
  C 408.71 188.67 412.13 184.43 409.03 182.20
  A 0.97 0.97 0.0 0 0 407.77 182.32
  Z
  M 399.37 194.12
  Q 394.88 200.69 390.76 205.98
  Q 388.59 208.76 390.17 211.62
  A 0.63 0.63 0.0 0 0 391.27 211.63
  Q 395.49 204.17 401.47 198.04
  Q 401.84 197.65 401.79 197.12
  Q 401.58 195.06 399.76 194.03
  A 0.29 0.29 0.0 0 0 399.37 194.12
  Z
  M 413.53 200.63
  C 410.77 206.23 406.91 210.27 403.72 215.50
  Q 401.54 219.08 398.73 222.01
  A 0.56 0.56 0.0 0 0 399.06 222.96
  Q 403.76 223.57 406.02 219.79
  C 407.93 216.60 413.01 210.49 412.72 206.92
  A 1.44 1.44 0.0 0 1 412.97 205.99
  C 413.26 205.58 416.97 199.06 413.85 200.33
  A 0.62 0.60 0.9 0 0 413.53 200.63
  Z"
/>
<path fill="#000000" d="
  M 319.39 200.93
  C 320.28 195.82 327.85 188.40 332.20 184.58
  A 1.41 1.37 -66.0 0 1 333.05 184.24
  C 342.82 183.75 345.77 189.93 346.72 198.78
  C 347.36 204.74 348.51 215.13 345.82 220.56
  C 343.89 224.45 341.35 229.07 336.79 230.14
  C 327.14 232.42 325.26 224.71 320.68 219.35
  Q 320.37 218.98 320.28 218.52
  Q 318.27 207.29 319.39 200.93
  Z"
/>
<path fill="#000000" d="
  M 225.42 193.89
  A 0.96 0.94 85.0 0 1 225.97 194.36
  Q 232.71 207.25 231.70 222.00
  C 231.36 226.80 229.85 234.29 224.80 236.01
  Q 216.46 238.84 208.90 234.07
  Q 208.47 233.80 208.27 233.33
  Q 202.82 220.04 206.66 206.18
  C 209.09 197.43 215.52 190.93 225.42 193.89
  Z"
/>
<path fill="#000000" d="
  M 276.91 234.95
  C 263.79 232.32 270.23 214.05 282.13 221.39
  A 1.73 1.72 4.8 0 1 282.80 222.18
  Q 285.27 228.22 281.74 233.63
  Q 281.43 234.10 280.88 234.01
  Q 279.22 233.74 277.86 234.74
  Q 277.43 235.06 276.91 234.95
  Z"
/>
<path fill="#000000" d="
  M 277.34 261.72
  C 266.70 261.84 253.18 257.65 251.32 245.43
  Q 251.26 245.03 251.60 244.80
  L 253.32 243.63
  Q 253.80 243.30 253.99 242.75
  C 255.77 237.86 264.82 246.33 267.28 248.49
  C 270.24 251.08 277.50 249.52 281.06 248.82
  C 287.92 247.47 290.06 240.53 298.11 241.44
  Q 298.57 241.50 298.86 241.86
  C 305.39 250.16 292.68 257.49 286.70 260.40
  Q 286.26 260.61 285.78 260.59
  C 282.76 260.49 279.99 261.69 277.34 261.72
  Z"
/>
</svg>
