<?xml version="1.0" encoding="UTF-8" standalone="no"?>
<svg xmlns="http://www.w3.org/2000/svg" version="1.2" baseProfile="tiny" viewBox="0.00 0.00 300.00 250.00">
<path fill="#000000" d="
  M 103.63 193.13
  C 107.42 194.03 114.56 194.32 118.58 193.20
  C 126.33 191.04 135.53 187.88 140.94 181.95
  C 147.21 175.09 149.39 166.58 147.17 157.22
  Q 147.05 156.69 147.36 156.24
  C 149.21 153.56 153.21 149.97 154.80 148.79
  Q 161.76 143.67 166.31 139.73
  C 170.73 135.91 178.30 131.07 184.08 130.74
  Q 192.58 130.27 195.51 129.04
  Q 208.01 123.79 215.18 117.96
  Q 221.45 112.86 222.09 104.26
  C 222.67 96.56 222.56 91.37 220.99 83.76
  C 219.67 77.34 218.15 74.25 213.20 69.48
  Q 208.18 64.66 203.29 59.72
  C 197.03 53.38 188.55 51.06 179.86 50.79
  C 158.94 50.14 147.54 57.88 143.24 78.70
  C 142.92 80.27 143.24 82.23 142.65 83.95
  C 141.89 86.19 141.95 87.25 142.01 89.38
  A 1.33 1.31 -26.7 0 1 141.71 90.27
  C 136.33 96.83 133.22 102.51 131.57 109.56
  Q 130.91 112.37 129.94 114.79
  C 127.32 121.38 125.44 127.09 122.07 131.44
  Q 121.78 131.82 121.30 131.88
  Q 117.87 132.33 115.70 131.79
  Q 109.51 130.25 104.27 131.54
  Q 103.80 131.65 103.35 131.47
  Q 95.00 128.24 87.59 123.28
  C 79.06 117.57 69.70 112.74 60.22 108.98
  C 55.44 107.08 51.43 104.24 46.58 102.57
  Q 46.01 102.37 46.28 101.84
  C 47.45 99.52 48.42 97.41 49.22 94.87
  Q 52.33 85.06 56.87 75.82
  C 57.74 74.06 58.47 72.65 59.93 71.22
  C 66.64 64.62 72.56 56.75 79.71 50.74
  C 83.99 47.13 90.12 44.26 95.42 40.87
  C 101.94 36.70 109.52 33.73 116.24 31.07
  Q 120.58 29.36 125.76 29.00
  Q 128.23 28.83 136.14 25.93
  C 139.73 24.62 145.09 23.54 148.81 24.34
  C 157.41 26.20 167.47 27.52 176.72 29.74
  C 182.87 31.21 188.43 34.25 194.31 36.88
  C 202.66 40.61 210.22 47.35 217.35 53.02
  C 224.19 58.48 229.74 65.77 235.88 72.17
  C 239.63 76.08 241.99 82.14 244.51 86.93
  C 247.06 91.79 248.32 97.06 250.22 102.26
  Q 252.88 109.56 253.36 117.31
  C 253.43 118.53 253.84 119.40 253.91 120.49
  Q 254.74 132.68 254.03 137.76
  Q 253.13 144.12 249.66 154.50
  Q 249.39 155.34 245.66 167.50
  C 243.60 174.22 240.41 182.94 235.58 188.16
  C 232.16 191.86 226.02 195.02 222.82 198.31
  C 216.36 204.95 209.97 206.27 202.25 209.29
  C 198.89 210.60 195.26 213.13 191.28 214.45
  C 177.76 218.93 164.11 223.54 149.69 223.87
  Q 128.15 224.36 107.49 218.03
  Q 104.68 217.17 101.82 216.47
  C 95.36 214.88 89.47 210.92 83.14 208.08
  C 73.51 203.76 66.80 195.48 59.77 187.38
  Q 56.99 184.18 55.17 180.42
  Q 49.98 169.66 45.66 158.50
  A 0.36 0.35 -87.0 0 1 46.15 158.05
  C 49.53 159.81 53.29 160.91 56.48 162.61
  C 63.84 166.51 71.26 169.43 78.42 174.08
  Q 80.07 175.16 85.11 175.97
  A 1.03 1.02 -8.1 0 1 85.85 176.52
  C 89.90 184.75 94.36 190.93 103.63 193.13
  Z"
/>
<path fill="#000000" d="
  M 182.22 64.58
  Q 184.39 62.14 188.59 63.71
  C 196.87 66.82 203.91 73.43 206.21 82.07
  Q 207.81 88.05 208.02 89.87
  C 208.74 96.06 203.69 101.58 200.35 106.39
  C 197.65 110.29 190.01 115.96 184.75 113.44
  A 2.24 2.16 -30.2 0 0 183.81 113.21
  C 176.06 113.10 172.67 110.01 166.25 106.75
  C 159.23 103.20 159.42 99.24 157.29 92.89
  Q 157.14 92.42 157.16 91.94
  C 157.75 77.00 161.14 70.65 175.42 65.75
  C 177.46 65.05 179.26 65.46 181.41 65.05
  Q 181.90 64.95 182.22 64.58
  Z
  M 178.63 72.78
  C 171.36 74.44 166.06 77.83 165.07 86.02
  Q 164.31 92.32 165.93 97.02
  Q 166.10 97.52 166.53 97.83
  Q 172.14 101.92 178.44 104.76
  C 180.50 105.69 183.02 105.73 185.28 105.98
  C 189.32 106.44 191.75 105.37 194.01 102.26
  Q 197.37 97.65 200.20 92.70
  C 201.38 90.65 198.68 82.37 197.58 80.45
  Q 194.57 75.19 189.00 71.95
  Q 188.48 71.65 187.99 72.00
  L 185.20 73.99
  Q 184.77 74.29 184.30 74.06
  C 182.45 73.14 180.75 72.30 178.63 72.78
  Z"
/>
<path fill="#000000" d="
  M 120.90 149.75
  C 119.45 149.92 114.36 145.79 112.90 144.89
  A 0.67 0.66 48.2 0 1 112.96 143.72
  C 119.13 140.83 126.42 142.03 132.22 145.14
  Q 145.73 152.38 140.37 168.57
  C 137.98 175.77 130.99 177.89 124.52 180.67
  Q 122.06 181.72 119.26 181.79
  C 115.54 181.89 109.56 182.41 107.24 181.95
  C 102.12 180.93 101.53 176.01 99.88 171.72
  A 0.70 0.70 0.0 0 1 100.74 170.79
  L 107.79 172.98
  Q 108.28 173.13 108.63 173.52
  C 110.38 175.47 114.50 174.54 116.92 174.47
  C 121.87 174.33 126.48 171.66 130.59 169.21
  C 134.18 167.07 134.65 161.96 134.16 158.29
  C 133.46 153.08 126.24 150.37 121.80 149.76
  Q 121.35 149.70 120.90 149.75
  Z"
/>
</svg>
