<?xml version="1.0" encoding="UTF-8" standalone="no"?>
<svg xmlns="http://www.w3.org/2000/svg" version="1.2" baseProfile="tiny" viewBox="0.00 0.00 512.00 512.00">
<path fill="#000000" d="
  M 254.56 0.00
  L 266.04 0.00
  C 352.26 3.29 455.33 42.20 488.81 130.18
  Q 510.49 187.16 512.00 248.04
  L 512.00 255.56
  C 510.26 329.04 483.62 392.99 428.83 442.32
  C 381.29 485.12 321.87 510.13 257.70 512.00
  L 247.70 512.00
  C 183.70 510.08 123.54 485.31 75.60 443.27
  C 25.78 399.58 1.75 340.09 0.00 274.41
  L 0.00 261.21
  Q 2.65 183.65 38.91 116.05
  C 72.27 53.86 131.83 23.14 198.50 9.49
  Q 216.19 5.86 233.89 2.25
  C 240.79 0.84 247.61 0.48 254.56 0.00
  Z
  M 254.40 442.66
  C 252.50 437.48 255.66 435.90 260.61 435.55
  Q 261.11 435.51 261.40 435.93
  Q 263.49 438.93 265.61 443.43
  Q 271.63 456.27 277.42 469.29
  A 0.82 0.81 -15.1 0 0 278.26 469.77
  L 298.43 467.57
  Q 300.76 467.31 299.92 465.13
  Q 292.78 446.56 283.40 428.99
  A 1.34 1.33 59.0 0 1 283.83 427.26
  C 285.75 425.96 291.47 423.13 293.01 425.79
  Q 299.59 437.18 310.86 460.38
  Q 311.15 460.97 311.77 460.77
  L 326.41 456.12
  A 0.63 0.62 -21.5 0 0 326.79 455.26
  Q 318.68 437.66 311.21 419.77
  C 310.53 418.14 309.21 415.16 310.35 413.46
  C 311.74 411.40 317.42 411.32 318.73 413.54
  Q 325.99 425.78 338.13 450.38
  A 0.61 0.61 0.0 0 0 338.93 450.67
  L 353.52 444.25
  A 0.68 0.67 -26.6 0 0 353.84 443.30
  L 333.42 406.91
  A 1.71 1.71 0.0 0 1 334.01 404.62
  L 341.63 399.89
  A 0.64 0.64 0.0 0 1 342.52 400.11
  L 362.74 435.57
  A 0.81 0.80 -28.5 0 0 363.81 435.88
  Q 372.32 431.50 379.78 426.07
  Q 382.44 424.13 380.97 421.29
  Q 372.06 404.00 361.54 387.72
  A 0.87 0.86 52.3 0 1 361.68 386.62
  L 369.66 379.27
  A 0.57 0.55 51.8 0 1 370.51 379.38
  L 393.29 414.40
  Q 393.66 414.97 394.20 414.56
  L 408.82 403.38
  A 1.78 1.77 -30.9 0 0 409.36 401.23
  Q 408.21 398.73 406.38 395.84
  Q 395.12 377.99 382.27 361.69
  A 1.55 1.53 39.1 0 1 382.09 360.05
  Q 384.27 355.53 388.65 353.01
  Q 389.10 352.75 389.56 352.99
  Q 390.99 353.74 392.11 355.42
  Q 404.39 373.86 415.33 392.82
  A 0.55 0.55 0.0 0 0 416.21 392.92
  L 431.00 377.13
  Q 432.14 375.92 431.35 374.46
  C 423.48 359.91 413.35 346.22 404.05 332.42
  C 400.98 327.86 405.23 323.18 409.13 321.41
  A 1.61 1.61 0.0 0 1 411.12 321.95
  L 440.93 364.41
  Q 441.33 364.98 441.81 364.49
  L 456.28 349.91
  Q 456.64 349.55 456.70 349.04
  C 457.05 345.43 452.61 339.64 449.77 335.71
  Q 436.29 317.06 421.51 299.42
  C 418.70 296.07 423.39 293.13 426.09 292.90
  A 1.18 1.17 -24.5 0 1 427.04 293.25
  Q 429.50 295.79 431.70 298.55
  Q 447.71 318.63 462.88 339.11
  A 0.44 0.44 0.0 0 0 463.61 339.08
  L 473.55 322.76
  Q 474.03 321.97 473.44 321.25
  L 433.59 272.33
  Q 433.28 271.95 433.25 271.47
  Q 432.97 266.76 435.75 263.04
  A 0.97 0.96 41.0 0 1 437.21 262.94
  Q 439.75 265.49 442.26 268.49
  Q 460.12 289.87 477.17 311.71
  A 0.64 0.64 0.0 0 0 478.26 311.58
  L 486.57 292.73
  A 1.13 1.12 40.6 0 0 486.48 291.67
  Q 484.23 288.22 482.58 286.17
  Q 463.10 262.02 442.82 238.53
  A 1.32 1.28 25.2 0 1 442.50 237.68
  Q 442.46 232.81 444.46 228.47
  Q 445.29 226.67 446.98 227.72
  C 447.77 228.22 449.23 229.38 449.96 230.18
  Q 470.76 252.90 490.43 276.96
  A 0.39 0.39 0.0 0 0 491.12 276.70
  C 491.03 271.90 491.43 251.84 488.81 248.78
  Q 467.87 224.35 446.04 200.65
  Q 445.64 200.22 445.73 199.64
  Q 446.32 195.56 448.37 192.00
  A 1.52 1.52 0.0 0 1 450.72 191.64
  Q 452.89 193.65 455.36 196.40
  Q 473.91 217.14 491.71 238.43
  A 0.36 0.36 0.0 0 0 492.35 238.15
  Q 490.73 225.82 489.05 213.20
  C 488.49 209.00 483.98 204.73 481.06 201.44
  Q 459.33 176.98 446.85 163.17
  Q 444.81 160.92 444.72 159.22
  C 444.58 156.60 446.47 153.42 449.11 152.52
  Q 449.64 152.34 450.09 152.67
  Q 452.69 154.53 454.80 156.95
  Q 470.98 175.53 485.78 195.17
  A 0.35 0.35 0.0 0 0 486.41 194.89
  Q 484.27 183.29 481.52 171.68
  Q 480.09 165.66 477.76 163.24
  Q 458.78 143.48 439.68 123.83
  C 434.64 118.65 439.58 108.94 444.92 113.31
  Q 449.83 117.34 459.04 128.48
  Q 466.68 137.71 474.15 147.09
  Q 475.09 148.26 475.31 149.13
  A 0.17 0.16 -6.7 0 0 475.47 149.25
  Q 475.62 149.25 475.78 149.26
  Q 476.32 149.32 476.18 148.80
  C 470.82 128.73 463.34 112.82 449.71 97.04
  C 383.54 20.45 276.44 -8.03 180.59 24.37
  Q 169.57 28.09 150.06 35.32
  C 86.74 58.79 44.44 117.69 22.67 179.06
  Q 9.17 217.12 10.63 257.94
  C 13.62 341.23 54.43 411.56 128.70 449.21
  C 160.92 465.55 198.12 474.51 234.36 473.12
  A 1.17 1.17 0.0 0 0 235.43 471.62
  Q 231.82 459.51 225.55 448.57
  Q 225.29 448.12 225.60 447.70
  C 227.20 445.57 233.22 442.70 235.01 445.53
  Q 239.74 452.98 248.14 470.59
  Q 248.34 471.00 248.79 471.00
  L 264.73 471.00
  Q 265.64 471.00 265.28 470.16
  Q 259.47 456.41 254.40 442.66
  Z"
/>
<path fill="#000000" d="
  M 159.01 60.46
  C 162.59 59.08 166.13 66.34 167.01 68.76
  Q 167.18 69.21 166.74 69.40
  C 128.77 86.02 104.99 118.16 89.09 155.26
  C 86.47 161.36 77.30 156.41 74.60 153.16
  Q 74.28 152.78 74.26 152.29
  C 73.90 144.66 80.77 133.09 85.06 126.53
  C 102.27 100.20 129.06 71.99 159.01 60.46
  Z"
/>
<path fill="#000000" d="
  M 257.18 325.08
  C 253.93 324.34 250.34 329.36 248.57 331.56
  Q 233.01 350.96 216.86 369.86
  Q 213.70 373.56 208.97 377.72
  C 206.95 379.50 205.59 378.60 204.23 376.66
  Q 197.47 366.98 191.86 356.60
  Q 179.93 334.54 168.12 312.41
  Q 165.13 306.79 161.54 301.54
  A 1.32 1.28 -9.5 0 0 160.76 301.00
  C 140.24 295.92 119.06 290.31 99.69 281.83
  C 95.71 280.09 92.92 278.02 90.79 274.11
  C 79.16 252.84 100.51 238.21 116.42 230.39
  C 186.68 195.85 258.08 162.11 330.82 133.08
  C 336.74 130.71 343.18 128.05 349.32 127.82
  C 371.13 126.98 382.52 143.14 380.01 164.00
  C 373.96 214.11 366.73 264.61 356.42 314.03
  Q 352.80 331.43 348.50 341.73
  C 343.70 353.27 320.88 346.64 311.74 343.49
  Q 288.57 335.51 265.48 327.24
  C 262.81 326.28 259.94 325.71 257.18 325.08
  Z
  M 107.27 269.46
  Q 113.03 274.08 117.55 276.01
  Q 139.85 285.51 166.31 288.96
  Q 166.81 289.03 167.25 288.77
  Q 169.33 287.54 171.84 285.61
  C 231.40 239.88 289.62 192.09 347.91 144.76
  C 349.43 143.53 350.28 142.02 350.24 140.16
  A 1.65 1.64 -10.5 0 0 348.04 138.65
  Q 340.41 141.41 333.00 144.50
  Q 264.56 173.06 196.92 203.45
  C 170.46 215.34 144.51 228.74 118.68 241.93
  C 108.32 247.22 92.36 257.51 107.27 269.46
  Z
  M 345.07 158.20
  L 346.54 167.77
  Q 346.67 168.61 347.26 168.00
  C 350.27 164.87 355.59 159.73 357.60 156.02
  C 358.75 153.87 357.19 149.11 356.51 146.78
  A 0.31 0.31 0.0 0 0 356.00 146.64
  L 345.39 157.23
  Q 344.98 157.63 345.07 158.20
  Z
  M 257.73 310.93
  C 279.27 320.98 303.65 330.36 326.99 334.24
  Q 330.34 334.79 332.92 333.74
  A 1.37 1.36 -88.2 0 0 333.65 333.05
  C 338.90 321.98 341.41 307.89 344.13 294.42
  Q 355.81 236.49 364.26 178.00
  Q 365.59 168.76 366.55 159.79
  A 0.45 0.45 0.0 0 0 365.74 159.47
  Q 310.44 233.34 257.14 308.67
  A 1.52 1.52 0.0 0 0 257.73 310.93
  Z
  M 321.81 176.40
  L 325.20 192.75
  A 0.48 0.48 0.0 0 0 326.03 192.97
  L 340.14 177.01
  A 1.84 1.83 -33.9 0 0 340.50 175.21
  L 336.84 164.50
  A 0.89 0.89 0.0 0 0 335.43 164.11
  L 322.25 175.14
  A 1.30 1.29 -25.9 0 0 321.81 176.40
  Z
  M 300.85 193.18
  Q 300.61 193.38 300.70 193.66
  L 308.49 218.68
  A 0.28 0.27 55.3 0 0 308.97 218.77
  L 319.74 204.88
  Q 320.07 204.45 319.93 203.93
  L 314.32 183.43
  A 0.81 0.81 0.0 0 0 313.02 183.02
  L 300.85 193.18
  Z
  M 290.74 241.00
  A 0.30 0.30 0.0 0 0 291.27 241.08
  L 300.13 228.99
  A 0.30 0.30 0.0 0 0 300.17 228.71
  L 289.81 200.25
  A 0.30 0.30 0.0 0 0 289.33 200.13
  L 279.70 209.00
  A 0.30 0.30 0.0 0 0 279.62 209.32
  L 290.74 241.00
  Z
  M 276.40 263.97
  L 284.12 253.95
  A 1.15 1.14 -34.7 0 0 284.31 252.94
  Q 279.21 235.09 272.49 217.80
  A 0.80 0.79 58.5 0 0 271.22 217.49
  L 261.58 226.12
  A 1.28 1.27 -31.6 0 0 261.24 227.53
  L 275.39 263.82
  Q 275.76 264.79 276.40 263.97
  Z
  M 254.03 233.29
  A 0.49 0.49 0.0 0 0 253.25 233.11
  L 245.98 239.50
  A 0.49 0.49 0.0 0 0 245.84 240.05
  L 261.93 281.23
  A 0.49 0.49 0.0 0 0 262.75 281.38
  L 270.02 273.29
  A 0.49 0.49 0.0 0 0 270.10 272.78
  L 254.03 233.29
  Z
  M 247.19 300.30
  L 256.62 288.36
  A 0.96 0.95 -35.6 0 0 256.77 287.46
  Q 249.68 266.42 240.30 246.29
  Q 239.66 244.91 238.32 245.64
  C 235.05 247.44 229.91 250.72 231.26 255.25
  Q 238.10 278.21 246.35 300.17
  Q 246.65 300.98 247.19 300.30
  Z
  M 215.20 265.82
  Q 215.94 269.41 217.60 274.10
  Q 226.92 300.49 237.60 326.75
  A 0.66 0.65 48.3 0 0 238.78 326.82
  L 242.97 319.18
  Q 243.24 318.70 243.06 318.18
  L 223.09 259.68
  Q 222.84 258.94 222.23 259.43
  L 215.53 264.90
  A 0.95 0.95 0.0 0 0 215.20 265.82
  Z
  M 207.01 271.30
  C 205.11 272.60 197.36 278.46 198.25 281.25
  C 205.17 303.01 214.69 324.67 223.49 345.75
  A 0.45 0.45 0.0 0 0 224.23 345.89
  C 226.14 343.89 233.72 336.65 232.77 333.99
  Q 221.53 302.37 208.34 271.69
  Q 207.91 270.69 207.01 271.30
  Z
  M 175.30 297.03
  A 0.65 0.64 -30.0 0 0 175.08 297.82
  L 205.99 364.21
  Q 206.33 364.94 206.94 364.42
  Q 211.93 360.22 215.98 355.07
  A 1.05 1.05 0.0 0 0 216.18 354.15
  Q 215.04 349.48 212.55 342.98
  Q 201.81 314.94 190.04 287.31
  A 0.28 0.28 0.0 0 0 189.63 287.19
  L 175.30 297.03
  Z"
/>
</svg>
