<?xml version="1.0" encoding="UTF-8" standalone="no"?>
<svg xmlns="http://www.w3.org/2000/svg" version="1.2" baseProfile="tiny" viewBox="0.00 0.00 512.00 512.00">
<path fill="#000000" d="
  M 512.00 283.07
  L 512.00 302.55
  C 509.77 338.02 506.38 372.02 491.21 404.73
  C 487.20 413.39 482.44 420.04 474.20 425.34
  C 451.06 440.21 421.69 444.34 394.32 445.26
  C 348.00 446.82 301.67 447.93 255.34 449.11
  Q 181.75 451.00 108.44 444.07
  C 94.39 442.74 79.95 440.63 66.48 436.31
  C 39.73 427.75 19.84 381.25 14.35 356.68
  C 6.88 323.20 3.28 287.87 2.32 250.93
  C 1.37 214.59 -0.48 178.44 0.50 141.76
  Q 0.97 124.11 10.66 109.70
  C 27.41 84.77 57.08 80.04 85.32 76.14
  Q 122.99 70.93 149.82 68.88
  C 170.52 67.30 191.26 65.34 211.99 64.24
  C 275.24 60.89 339.43 62.39 402.50 70.00
  C 416.66 71.71 429.51 78.36 440.75 86.76
  C 464.37 104.40 481.00 127.38 490.31 155.23
  Q 507.36 206.28 510.77 260.20
  Q 511.49 271.61 512.00 283.07
  Z
  M 158.85 387.36
  Q 162.37 385.88 166.18 385.60
  Q 166.71 385.56 166.99 386.01
  C 172.19 394.21 176.12 404.66 180.18 413.40
  A 2.00 1.98 77.3 0 0 181.98 414.55
  L 192.89 414.54
  A 0.64 0.63 -13.4 0 0 193.46 413.62
  L 178.21 383.56
  A 1.69 1.68 -31.9 0 1 178.70 381.45
  Q 181.69 379.19 185.49 378.94
  A 0.93 0.92 -14.8 0 1 186.38 379.45
  Q 194.89 396.68 201.87 414.58
  A 1.67 1.66 81.5 0 0 203.29 415.64
  L 216.35 416.64
  A 0.58 0.57 -10.4 0 0 216.92 415.82
  L 199.42 379.30
  A 1.06 1.06 0.0 0 1 199.78 377.96
  C 201.72 376.65 208.60 372.68 210.45 375.82
  Q 212.39 379.09 213.85 382.60
  Q 220.81 399.24 227.46 415.71
  Q 227.88 416.75 229.00 416.75
  L 240.02 416.75
  A 1.34 1.34 0.0 0 0 241.24 414.86
  Q 232.04 394.54 221.51 374.89
  A 1.24 1.24 0.0 0 1 222.23 373.12
  Q 225.92 371.96 229.75 372.29
  Q 230.23 372.33 230.46 372.75
  Q 232.56 376.65 233.47 378.76
  Q 241.85 398.20 250.14 417.55
  Q 250.45 418.26 251.23 418.30
  L 262.99 418.92
  A 0.60 0.59 79.3 0 0 263.56 418.08
  L 243.72 374.01
  A 1.42 1.39 -43.6 0 1 243.76 372.78
  Q 246.09 368.31 251.18 367.79
  Q 251.66 367.74 251.92 368.15
  Q 254.25 371.73 255.78 375.74
  Q 263.41 395.68 270.79 415.69
  C 271.82 418.47 272.76 419.26 275.87 419.27
  Q 282.31 419.29 288.42 418.92
  A 1.21 1.20 -13.1 0 0 289.46 417.26
  L 271.21 372.80
  A 1.06 1.05 57.5 0 1 271.46 371.64
  Q 274.61 368.70 279.04 368.94
  A 0.94 0.93 -11.3 0 1 279.83 369.46
  Q 281.88 373.63 284.55 380.73
  Q 291.42 399.04 297.93 417.36
  A 1.37 1.37 0.0 0 0 299.16 418.27
  L 315.22 418.96
  Q 315.96 418.99 315.96 418.25
  Q 315.95 416.52 315.26 414.49
  Q 308.09 393.64 300.64 373.32
  A 2.21 2.20 -21.9 0 1 301.84 370.53
  Q 305.23 369.06 308.95 368.99
  Q 309.44 368.98 309.69 369.39
  Q 311.28 372.00 311.75 373.29
  Q 320.07 395.86 327.75 418.00
  A 2.12 2.11 82.2 0 0 329.63 419.43
  L 342.22 420.15
  A 1.78 1.78 0.0 0 0 344.01 417.81
  L 326.37 365.16
  Q 325.88 363.67 327.35 363.15
  L 333.07 361.13
  Q 333.73 360.90 333.97 361.56
  C 340.50 379.93 345.58 398.95 351.44 417.56
  A 1.15 1.13 -85.0 0 0 352.00 418.24
  C 354.72 419.70 361.03 419.01 364.09 418.99
  A 0.79 0.78 -9.4 0 0 364.83 417.96
  Q 356.09 391.45 346.62 365.17
  C 345.26 361.38 350.86 359.46 353.31 358.91
  Q 353.89 358.78 354.18 359.30
  Q 356.28 363.11 357.81 367.19
  Q 367.06 391.78 375.92 416.34
  A 0.71 0.71 0.0 0 0 376.61 416.80
  L 393.66 416.01
  A 1.43 1.43 0.0 0 0 394.96 414.13
  Q 393.77 410.46 392.53 407.38
  Q 381.48 379.95 370.16 352.65
  Q 369.77 351.70 369.31 350.70
  A 0.99 0.97 -44.3 0 1 369.33 349.84
  Q 371.19 346.14 375.21 345.38
  A 0.88 0.88 0.0 0 1 376.10 345.74
  Q 377.74 348.06 378.48 349.80
  Q 389.07 374.81 404.29 412.77
  C 405.22 415.08 406.37 415.07 408.58 414.61
  Q 416.73 412.91 424.38 410.11
  A 0.68 0.67 68.6 0 0 424.77 409.21
  C 415.40 386.88 405.28 364.34 397.22 341.51
  C 395.91 337.82 396.44 334.91 401.16 335.24
  Q 401.67 335.28 401.93 335.73
  Q 405.08 341.29 407.67 347.14
  Q 420.20 375.53 432.31 403.26
  Q 432.99 404.81 434.67 404.55
  Q 440.40 403.66 445.32 400.57
  A 1.76 1.76 0.0 0 0 446.10 398.67
  Q 445.22 394.90 443.60 390.84
  Q 430.70 358.38 416.61 326.42
  C 414.57 321.79 419.26 319.55 423.07 320.07
  Q 423.58 320.14 423.82 320.58
  Q 427.41 327.06 429.34 332.18
  Q 441.54 364.51 452.56 397.20
  A 0.90 0.90 0.0 0 0 454.10 397.49
  L 463.68 386.07
  Q 464.07 385.60 463.89 385.01
  Q 463.26 382.93 462.48 380.89
  Q 448.16 343.55 432.71 306.66
  C 431.26 303.18 433.04 299.84 435.14 297.10
  A 0.95 0.94 48.1 0 1 436.69 297.19
  C 437.94 299.24 439.25 301.46 440.25 303.74
  Q 455.91 339.33 471.22 374.68
  A 0.77 0.77 0.0 0 0 472.63 374.68
  L 480.55 356.15
  A 1.12 1.10 44.4 0 0 480.53 355.23
  L 446.63 284.16
  A 2.00 1.95 -52.0 0 1 446.49 282.88
  Q 447.47 278.52 450.39 275.08
  A 1.44 1.44 0.0 0 1 452.79 275.40
  Q 469.16 310.32 483.76 346.02
  A 1.03 1.02 -44.9 0 0 485.66 346.02
  Q 489.50 336.68 490.69 326.62
  A 1.78 1.78 0.0 0 0 490.54 325.70
  Q 474.96 292.80 457.71 260.74
  C 455.20 256.07 462.29 248.81 464.42 252.06
  Q 466.10 254.64 468.81 260.13
  Q 481.70 286.33 493.71 313.55
  A 0.30 0.30 0.0 0 0 494.28 313.51
  Q 494.81 311.63 494.99 309.50
  Q 495.86 298.78 496.18 288.04
  Q 496.27 285.21 495.28 282.65
  C 491.02 271.58 484.93 260.41 478.50 247.54
  C 474.70 239.93 469.16 232.66 464.87 224.88
  C 463.86 223.04 463.94 220.98 465.79 219.84
  A 2.38 2.38 0.0 0 1 468.38 219.92
  C 473.12 223.18 476.64 229.64 479.41 234.58
  Q 487.98 249.81 495.91 265.74
  A 0.50 0.50 0.0 0 0 496.86 265.52
  C 496.95 254.97 497.05 241.36 500.63 231.23
  Q 500.80 230.76 500.55 230.32
  Q 490.04 211.50 479.18 192.85
  C 476.95 189.02 478.68 181.46 479.74 177.34
  A 0.41 0.41 0.0 0 1 480.41 177.14
  Q 481.99 178.55 483.23 180.51
  Q 491.13 193.00 497.70 206.08
  A 0.47 0.47 0.0 0 0 498.59 205.79
  Q 494.62 182.84 486.78 160.70
  C 479.69 140.67 467.94 121.85 454.68 105.79
  C 434.55 81.43 398.00 73.71 367.31 72.89
  C 304.80 71.23 241.84 66.45 179.70 71.52
  Q 126.97 75.83 75.00 85.74
  C 58.10 88.96 34.36 95.78 26.01 111.53
  C 18.33 126.04 16.40 145.41 16.64 164.00
  C 17.20 208.29 19.39 252.47 21.60 296.71
  Q 22.26 309.94 23.24 316.61
  Q 27.31 344.40 41.07 369.19
  C 46.47 378.93 54.14 389.89 64.04 394.77
  Q 79.19 402.22 95.25 406.43
  A 0.79 0.79 0.0 0 0 96.18 405.37
  L 91.31 393.47
  A 1.16 1.15 60.5 0 1 91.68 392.12
  Q 95.53 389.26 100.25 390.21
  A 1.74 1.73 -11.2 0 1 101.36 390.95
  Q 106.92 399.24 110.74 408.45
  Q 110.91 408.86 111.35 408.91
  L 120.25 409.92
  A 0.86 0.86 0.0 0 0 121.14 408.73
  L 114.81 393.85
  A 2.06 2.04 -24.4 0 1 115.82 391.19
  Q 119.21 389.58 122.98 388.99
  A 1.07 1.06 63.8 0 1 123.93 389.32
  Q 125.23 390.71 126.22 392.82
  Q 131.58 404.23 134.43 410.95
  Q 134.65 411.46 135.20 411.51
  L 144.15 412.32
  A 1.29 1.28 80.7 0 0 145.44 410.52
  L 138.06 393.64
  A 1.85 1.84 60.7 0 1 138.68 391.41
  Q 141.36 389.51 144.69 388.98
  A 2.07 2.07 0.0 0 1 146.90 390.21
  Q 150.97 399.87 154.60 410.02
  C 156.52 415.38 164.85 414.35 169.43 414.52
  A 0.72 0.72 0.0 0 0 170.10 413.48
  L 158.15 389.21
  A 1.36 1.36 0.0 0 1 158.85 387.36
  Z"
/>
<path fill="#000000" d="
  M 388.27 97.34
  A 1.83 1.81 -84.7 0 1 389.73 96.12
  C 407.96 93.37 426.29 98.81 438.00 113.48
  Q 447.30 125.14 455.37 137.65
  Q 460.88 146.20 453.58 152.04
  C 452.18 153.16 449.85 153.00 449.01 151.47
  Q 441.57 138.02 439.15 134.33
  C 427.69 116.82 410.12 110.29 390.00 107.27
  C 386.49 106.75 387.43 99.74 388.27 97.34
  Z"
/>
<path fill="#000000" d="
  M 94.53 108.39
  C 100.41 106.89 99.32 113.57 97.86 116.37
  Q 96.88 118.25 94.21 119.63
  Q 73.78 130.13 58.55 138.54
  C 53.14 141.52 47.78 145.15 44.43 150.62
  C 40.26 157.43 33.60 170.90 34.39 178.99
  C 34.72 182.36 33.81 201.33 27.80 199.31
  C 23.24 197.78 22.42 183.05 22.18 179.05
  C 20.94 158.65 30.28 142.55 46.83 131.37
  C 61.29 121.60 77.53 112.74 94.53 108.39
  Z"
/>
<path fill="#000000" d="
  M 255.56 197.19
  Q 300.77 210.89 333.71 222.50
  C 359.93 231.75 333.64 250.78 323.62 257.08
  Q 287.32 279.92 249.10 299.40
  C 240.31 303.89 212.10 317.78 203.06 314.86
  C 198.28 313.31 195.90 307.39 195.66 302.82
  C 194.15 273.92 194.68 244.70 194.55 215.75
  C 194.50 203.81 201.60 191.37 213.93 188.87
  Q 218.16 188.02 225.51 189.51
  Q 239.81 192.42 255.56 197.19
  Z
  M 318.24 244.80
  C 290.42 232.03 258.64 226.63 227.93 223.12
  Q 225.98 222.89 223.75 223.03
  A 0.75 0.74 -84.1 0 0 223.07 223.59
  Q 222.23 226.76 222.04 230.06
  Q 220.25 261.27 221.54 292.50
  Q 221.68 296.06 222.46 298.43
  A 0.73 0.73 0.0 0 0 223.35 298.91
  Q 230.27 296.97 238.54 292.76
  Q 278.97 272.12 312.32 251.84
  Q 316.00 249.60 318.63 247.01
  A 1.37 1.36 35.1 0 0 318.24 244.80
  Z"
/>
<path fill="#000000" d="
  M 182.91 239.18
  A 1.89 1.87 23.3 0 1 183.53 240.72
  C 183.34 243.51 183.89 246.49 183.82 249.07
  Q 183.02 275.70 183.44 302.34
  C 183.49 305.63 182.81 308.22 180.45 310.27
  A 2.63 2.63 0.0 0 1 176.65 309.91
  Q 172.30 304.34 172.20 296.56
  C 172.00 280.47 171.18 260.65 172.19 240.85
  C 172.54 234.00 179.79 236.33 182.91 239.18
  Z"
/>
<path fill="#000000" d="
  M 295.69 307.81
  C 288.07 303.40 300.38 297.17 302.90 295.62
  Q 345.66 269.37 374.03 254.01
  C 377.25 252.26 382.38 251.92 385.21 255.30
  C 390.64 261.76 379.64 266.60 375.37 269.07
  Q 342.16 288.24 308.84 307.25
  Q 301.73 311.31 295.69 307.81
  Z"
/>
<path fill="#000000" d="
  M 45.67 332.52
  A 2.30 2.30 0.0 0 1 46.95 334.41
  Q 47.54 342.15 50.26 349.76
  C 51.81 354.06 57.50 358.69 60.68 362.05
  C 68.11 369.88 55.65 376.46 49.23 369.65
  C 40.51 360.42 33.34 344.98 35.65 331.87
  Q 35.74 331.31 36.31 331.21
  Q 41.21 330.34 45.67 332.52
  Z"
/>
</svg>
