<?xml version="1.0" encoding="UTF-8" standalone="no"?>
<svg xmlns="http://www.w3.org/2000/svg" version="1.2" baseProfile="tiny" viewBox="0.00 0.00 600.00 416.00">
<path fill="#ffffff" d="
  M 25.41 156.32
  C 27.58 153.38 33.89 153.16 35.71 157.36
  Q 35.96 157.93 35.34 158.00
  Q 33.22 158.23 31.74 156.67
  A 1.48 1.45 -19.5 0 0 30.78 156.22
  C 27.36 155.95 24.84 160.13 27.14 162.87
  C 30.67 167.06 32.17 161.83 35.54 163.17
  Q 35.93 163.33 35.70 163.68
  C 30.94 171.18 19.73 164.01 25.41 156.32
  Z"
/>
<path fill="#ffffff" d="
  M 117.11 160.44
  A 6.42 6.42 0.0 0 1 110.69 166.86
  A 6.42 6.42 0.0 0 1 104.27 160.44
  A 6.42 6.42 0.0 0 1 110.69 154.02
  A 6.42 6.42 0.0 0 1 117.11 160.44
  Z
  M 110.4422 164.5566
  A 4.18 3.78 92.3 0 0 114.3870 160.5317
  A 4.18 3.78 92.3 0 0 110.7778 156.2034
  A 4.18 3.78 92.3 0 0 106.8330 160.2283
  A 4.18 3.78 92.3 0 0 110.4422 164.5566
  Z"
/>
<path fill="#ffffff" d="
  M 249.09 161.61
  C 248.75 161.37 245.78 162.68 245.86 160.65
  A 0.85 0.84 -87.4 0 1 246.75 159.83
  L 251.84 160.07
  A 1.24 1.23 12.6 0 1 252.92 161.77
  Q 250.60 167.42 245.68 166.63
  C 234.06 164.76 243.82 146.80 252.04 156.94
  Q 252.41 157.40 251.91 157.71
  C 250.87 158.35 249.81 158.04 248.92 157.14
  C 243.93 152.02 238.30 166.04 248.48 164.29
  A 1.49 1.48 -32.3 0 0 249.09 161.61
  Z"
/>
<path fill="#ffffff" d="
  M 45.45 160.04
  L 45.52 166.19
  A 0.54 0.53 89.5 0 1 45.00 166.73
  L 43.64 166.76
  Q 43.00 166.77 43.00 166.13
  L 43.00 155.51
  A 1.65 1.65 0.0 0 1 46.18 154.88
  L 49.41 162.79
  A 0.43 0.43 0.0 0 0 50.20 162.80
  L 53.74 154.76
  A 1.57 1.57 0.0 0 1 56.75 155.39
  L 56.75 165.97
  Q 56.75 166.63 56.10 166.68
  L 54.89 166.77
  Q 54.26 166.82 54.26 166.20
  Q 54.23 163.22 54.26 160.24
  A 0.33 0.32 -32.2 0 0 53.64 160.10
  L 50.93 165.98
  A 1.32 1.31 -40.6 0 1 48.47 165.79
  Q 47.59 162.70 45.95 159.90
  Q 45.44 159.04 45.45 160.04
  Z"
/>
<path fill="#ffffff" d="
  M 67.07 164.36
  A 1.18 1.17 -17.5 0 0 68.67 165.19
  C 73.46 163.20 67.98 161.17 65.99 160.68
  Q 65.49 160.56 65.16 160.16
  C 60.88 154.90 68.41 153.49 72.03 155.08
  A 1.27 1.27 0.0 0 1 71.71 157.50
  Q 70.04 157.74 69.73 156.48
  A 1.09 1.09 0.0 0 0 68.23 155.74
  Q 65.96 156.72 67.07 158.65
  Q 67.34 159.13 67.86 159.26
  C 69.37 159.65 71.43 159.92 72.40 161.10
  C 73.76 162.76 73.09 165.17 71.14 166.11
  Q 68.34 167.47 64.86 165.71
  A 1.36 1.36 0.0 0 1 65.51 163.13
  Q 66.80 163.17 67.07 164.36
  Z"
/>
<path fill="#ffffff" d="
  M 93.00 156.50
  L 93.00 158.98
  A 0.58 0.58 0.0 0 0 93.67 159.55
  Q 95.10 159.31 96.49 159.67
  A 0.80 0.80 0.0 0 1 96.29 161.25
  L 93.62 161.25
  Q 93.00 161.25 93.00 161.88
  L 93.00 165.98
  Q 93.00 166.63 92.35 166.68
  L 91.16 166.77
  Q 90.50 166.82 90.50 166.16
  L 90.50 154.97
  Q 90.50 154.32 91.15 154.29
  C 92.20 154.24 98.76 153.56 98.24 155.47
  Q 98.10 156.00 97.55 156.00
  L 93.50 156.00
  Q 93.00 156.00 93.00 156.50
  Z"
/>
<path fill="#ffffff" d="
  M 126.50 162.49
  L 126.50 165.88
  Q 126.50 166.51 125.88 166.60
  L 124.69 166.78
  Q 124.00 166.88 124.00 166.18
  L 124.00 154.99
  Q 124.00 154.46 124.53 154.38
  C 128.29 153.82 134.45 154.00 132.70 159.63
  A 1.53 1.53 0.0 0 1 132.05 160.47
  L 130.64 161.35
  Q 130.23 161.61 130.47 162.04
  L 132.70 165.98
  Q 133.04 166.59 132.35 166.72
  C 129.79 167.18 128.75 163.96 127.52 162.17
  A 0.56 0.56 0.0 0 0 126.50 162.49
  Z
  M 126.29 156.83
  L 126.31 159.17
  A 0.83 0.83 0.0 0 0 127.14 159.99
  L 128.09 159.98
  A 2.66 1.89 -0.4 0 0 130.74 158.07
  L 130.74 157.85
  A 2.66 1.89 -0.4 0 0 128.07 155.98
  L 127.12 155.99
  A 0.83 0.83 0.0 0 0 126.29 156.83
  Z"
/>
<path fill="#ffffff" d="
  M 155.87 163.01
  L 158.80 154.77
  Q 158.93 154.39 159.34 154.35
  L 161.05 154.21
  Q 161.71 154.16 161.48 154.78
  L 157.43 165.55
  A 2.06 2.05 45.4 0 1 153.57 165.52
  L 149.76 154.94
  A 0.50 0.50 0.0 0 1 150.09 154.29
  C 152.73 153.50 154.50 161.12 155.16 163.01
  Q 155.51 164.03 155.87 163.01
  Z"
/>
<path fill="#ffffff" d="
  M 174.86 164.25
  L 170.95 164.25
  Q 170.38 164.25 170.34 164.82
  Q 170.18 167.02 167.83 166.74
  Q 167.26 166.67 167.45 166.13
  L 171.25 155.21
  A 1.89 1.88 -45.4 0 1 174.80 155.18
  L 178.73 166.02
  Q 178.97 166.66 178.28 166.75
  Q 175.90 167.04 175.62 164.92
  Q 175.53 164.25 174.86 164.25
  Z
  M 171.38 162.03
  A 0.38 0.38 0.0 0 0 171.75 162.53
  L 174.50 162.47
  A 0.38 0.38 0.0 0 0 174.85 161.96
  L 173.40 157.97
  A 0.38 0.38 0.0 0 0 172.68 157.98
  L 171.38 162.03
  Z"
/>
<path fill="#ffffff" d="
  M 188.93 164.69
  Q 189.85 164.98 190.85 165.01
  Q 191.33 165.02 191.74 165.24
  Q 192.24 165.50 192.26 165.83
  A 0.54 0.53 84.7 0 1 191.78 166.42
  Q 189.03 166.70 186.28 166.78
  Q 185.75 166.79 185.75 166.26
  L 185.75 154.89
  Q 185.75 154.35 186.29 154.32
  L 187.33 154.26
  Q 188.00 154.23 188.02 154.90
  L 188.25 163.78
  Q 188.26 164.48 188.93 164.69
  Z"
/>
<path fill="#ffffff" d="
  M 203.32 163.33
  A 0.34 0.34 0.0 0 0 203.97 163.33
  L 206.94 154.73
  Q 207.07 154.33 207.50 154.31
  L 209.08 154.23
  Q 209.81 154.19 209.55 154.88
  L 205.56 165.39
  A 2.12 2.12 0.0 0 1 201.59 165.35
  L 197.90 155.01
  Q 197.72 154.49 198.23 154.29
  C 200.76 153.29 202.76 161.63 203.32 163.33
  Z"
/>
<path fill="#ffffff" d="
  M 219.19 164.68
  L 223.48 165.20
  A 0.73 0.73 0.0 0 1 223.40 166.65
  L 216.86 166.76
  Q 216.25 166.78 216.25 166.17
  L 216.25 154.87
  A 0.63 0.62 -89.6 0 1 216.88 154.24
  L 222.75 154.28
  A 0.86 0.85 -44.8 0 1 222.74 155.99
  L 219.37 156.01
  Q 218.75 156.01 218.75 156.63
  L 218.75 158.88
  Q 218.75 159.50 219.38 159.50
  L 221.62 159.50
  Q 222.17 159.50 222.63 159.79
  Q 223.42 160.29 222.62 161.03
  Q 222.37 161.25 222.04 161.25
  L 219.38 161.25
  Q 218.75 161.25 218.75 161.88
  L 218.75 164.18
  Q 218.75 164.63 219.19 164.68
  Z"
/>
<path fill="#ffffff" d="
  M 262.99 154.70
  A 0.41 0.40 -1.8 0 1 263.23 154.45
  Q 265.95 153.36 266.74 155.99
  Q 268.24 160.99 270.13 165.84
  Q 270.32 166.33 269.85 166.57
  C 268.47 167.29 267.57 166.18 267.26 164.84
  Q 267.12 164.25 266.52 164.25
  L 262.49 164.25
  A 0.53 0.52 -88.2 0 0 261.97 164.75
  Q 261.88 166.78 259.88 166.78
  A 0.86 0.86 0.0 0 1 259.06 165.63
  L 262.99 154.70
  Z
  M 262.74 162.09
  A 0.33 0.33 0.0 0 0 263.04 162.54
  L 265.95 162.60
  A 0.33 0.33 0.0 0 0 266.27 162.16
  L 264.89 158.22
  A 0.33 0.33 0.0 0 0 264.27 158.21
  L 262.74 162.09
  Z"
/>
<path fill="#ffffff" d="
  M 279.45 159.93
  L 279.52 166.11
  A 0.64 0.63 90.0 0 1 278.89 166.75
  L 277.63 166.75
  Q 277.00 166.75 277.00 166.12
  L 277.00 155.42
  A 1.62 1.61 33.9 0 1 280.11 154.81
  L 283.38 162.74
  A 0.54 0.54 0.0 0 0 284.38 162.74
  L 287.77 154.93
  A 1.55 1.55 0.0 0 1 290.75 155.55
  L 290.75 165.98
  Q 290.75 166.65 290.09 166.68
  L 288.93 166.75
  A 0.64 0.64 0.0 0 1 288.25 166.11
  L 288.25 160.23
  A 0.33 0.33 0.0 0 0 287.61 160.11
  L 285.21 166.02
  A 1.52 1.52 0.0 0 1 282.30 165.68
  Q 281.80 162.42 279.70 159.84
  A 0.14 0.14 0.0 0 0 279.45 159.93
  Z"
/>
<path fill="#ffffff" d="
  M 301.93 164.94
  L 304.97 165.04
  A 0.73 0.73 0.0 0 1 305.03 166.49
  Q 301.92 166.84 298.86 166.66
  A 0.65 0.65 0.0 0 1 298.25 166.01
  L 298.25 154.87
  A 0.63 0.62 -89.6 0 1 298.88 154.24
  L 305.09 154.28
  A 0.74 0.74 0.0 0 1 305.32 155.72
  Q 303.47 156.34 301.44 155.88
  A 0.55 0.54 6.4 0 0 300.77 156.41
  L 300.74 158.87
  Q 300.74 159.50 301.37 159.50
  L 303.62 159.50
  Q 304.16 159.50 304.62 159.79
  Q 305.41 160.29 304.63 161.02
  Q 304.38 161.25 304.04 161.25
  L 302.00 161.25
  A 1.85 1.84 -44.0 0 0 301.93 164.94
  Z"
/>
<path fill="#ffffff" d="
  M 317.94 164.76
  A 1.39 1.39 0.0 0 0 318.56 162.17
  C 316.91 161.21 311.23 160.21 312.64 157.12
  Q 314.66 152.71 320.51 155.07
  A 1.32 1.32 0.0 0 1 319.95 157.61
  Q 318.92 157.55 318.58 156.91
  Q 318.35 156.48 317.92 156.24
  Q 316.61 155.50 315.49 156.56
  A 1.97 1.71 19.5 0 0 317.19 159.56
  C 324.90 159.36 321.53 170.58 313.24 165.54
  A 1.28 1.28 0.0 0 1 313.92 163.17
  Q 315.29 163.18 315.77 164.29
  Q 316.02 164.87 316.66 164.83
  L 317.94 164.76
  Z"
/>
<path fill="#ffffff" d="
  M 338.80 157.36
  C 339.54 153.52 344.04 153.74 346.99 155.28
  A 1.24 1.24 0.0 0 1 346.51 157.61
  Q 345.05 157.72 344.49 156.62
  Q 344.22 156.08 343.63 155.99
  Q 343.07 155.91 342.51 156.05
  A 1.71 1.71 0.0 0 0 342.79 159.41
  Q 345.66 159.62 347.61 161.62
  Q 347.99 162.01 348.01 162.55
  C 348.19 167.57 341.31 167.81 338.87 164.44
  A 0.63 0.62 -36.6 0 1 339.00 163.58
  C 341.59 161.62 341.64 166.09 344.36 164.52
  A 1.45 1.44 44.6 0 0 344.34 162.01
  C 342.33 160.89 338.16 160.69 338.80 157.36
  Z"
/>
<path fill="#ffffff" d="
  M 357.93 164.70
  C 358.94 164.82 362.42 164.75 362.62 165.88
  Q 362.74 166.50 362.10 166.50
  L 355.50 166.50
  Q 355.00 166.50 355.00 166.00
  L 355.00 154.87
  Q 355.00 154.23 355.64 154.24
  L 361.72 154.28
  A 0.86 0.85 45.0 0 1 361.72 155.99
  L 358.12 156.01
  Q 357.50 156.01 357.50 156.63
  L 357.50 158.87
  Q 357.50 159.50 358.13 159.50
  L 361.44 159.50
  Q 361.95 159.50 361.97 160.00
  L 362.00 160.61
  Q 362.04 161.25 361.39 161.25
  L 358.13 161.25
  Q 357.50 161.25 357.50 161.88
  L 357.50 164.21
  Q 357.50 164.65 357.93 164.70
  Z"
/>
<path fill="#ffffff" d="
  M 375.93 162.09
  L 378.68 166.06
  A 0.44 0.44 0.0 0 1 378.25 166.75
  L 376.38 166.47
  A 1.19 1.16 79.0 0 1 375.57 165.91
  L 373.37 162.12
  A 0.77 0.77 0.0 0 0 371.94 162.55
  L 372.16 165.97
  Q 372.21 166.64 371.54 166.59
  L 370.35 166.50
  Q 369.75 166.46 369.75 165.85
  L 369.75 155.02
  Q 369.75 154.57 370.18 154.45
  Q 375.10 153.17 378.64 156.32
  Q 379.11 156.74 379.10 157.37
  Q 379.01 160.35 376.16 161.35
  A 0.49 0.49 0.0 0 0 375.93 162.09
  Z
  M 376.0073 156.8532
  A 0.95 0.95 0.0 0 0 375.0073 155.9560
  L 372.9104 156.0695
  A 0.95 0.95 0.0 0 0 372.0132 157.0695
  L 372.1127 158.9068
  A 0.95 0.95 0.0 0 0 373.1127 159.8040
  L 375.2096 159.6905
  A 0.95 0.95 0.0 0 0 376.1068 158.6905
  L 376.0073 156.8532
  Z"
/>
<path fill="#ffffff" d="
  M 391.56 163.15
  L 394.53 155.00
  A 0.97 0.97 0.0 0 1 395.31 154.37
  L 396.31 154.22
  A 0.67 0.67 0.0 0 1 397.03 155.12
  L 393.23 165.34
  A 2.18 2.18 0.0 0 1 389.13 165.32
  L 385.38 154.93
  Q 385.13 154.25 385.86 154.25
  L 387.13 154.25
  Q 387.76 154.25 387.94 154.85
  Q 389.20 159.06 390.76 163.15
  A 0.43 0.43 0.0 0 0 391.56 163.15
  Z"
/>
<path fill="#ffffff" d="
  M 407.18 164.97
  Q 408.99 164.80 410.57 165.10
  Q 411.00 165.19 411.00 165.63
  L 411.00 165.96
  A 0.65 0.64 -89.6 0 1 410.35 166.61
  L 404.02 166.55
  A 0.53 0.53 0.0 0 1 403.50 166.02
  L 403.50 154.88
  Q 403.50 154.25 404.13 154.25
  L 410.25 154.25
  Q 410.72 154.25 410.88 154.69
  C 411.58 156.64 407.65 156.00 406.58 156.01
  A 0.61 0.61 0.0 0 0 405.97 156.69
  L 406.25 158.91
  Q 406.32 159.50 406.91 159.50
  L 409.87 159.50
  Q 410.50 159.50 410.50 160.13
  L 410.50 160.69
  A 0.63 0.63 0.0 0 1 409.80 161.32
  Q 408.00 161.13 407.30 161.23
  A 2.00 1.73 -47.3 0 0 407.18 164.97
  Z"
/>
<path fill="#ffffff" d="
  M 420.64 162.67
  L 420.79 165.97
  Q 420.82 166.50 420.28 166.50
  L 418.75 166.50
  Q 418.25 166.50 418.25 166.00
  L 418.25 155.01
  Q 418.25 154.50 418.74 154.42
  C 422.27 153.78 429.29 154.17 427.10 159.70
  Q 426.92 160.15 426.50 160.41
  L 424.95 161.37
  A 0.57 0.57 0.0 0 0 424.77 162.16
  L 427.28 166.06
  Q 427.66 166.66 426.96 166.72
  C 423.92 167.00 423.40 164.14 421.89 162.21
  A 0.70 0.70 0.0 0 0 420.64 162.67
  Z
  M 424.8877 157.0854
  A 0.97 0.97 0.0 0 0 423.9383 156.0953
  L 421.5588 156.0455
  A 0.97 0.97 0.0 0 0 420.5687 156.9950
  L 420.5323 158.7346
  A 0.97 0.97 0.0 0 0 421.4817 159.7247
  L 423.8612 159.7745
  A 0.97 0.97 0.0 0 0 424.8513 158.8250
  L 424.8877 157.0854
  Z"
/>
<path fill="#ffffff" d="
  M 440.33 162.08
  L 435.83 160.31
  Q 435.28 160.10 434.97 159.59
  C 432.04 154.72 439.62 152.50 442.98 156.03
  A 0.89 0.88 -27.1 0 1 442.50 157.51
  Q 440.89 157.80 440.15 156.62
  Q 439.89 156.20 439.41 156.06
  Q 437.85 155.62 436.87 156.86
  A 1.28 1.27 -57.0 0 0 437.27 158.78
  C 439.50 159.96 444.31 159.74 443.35 163.82
  C 442.46 167.64 437.92 167.05 435.12 165.63
  A 1.27 1.27 0.0 0 1 435.43 163.26
  Q 436.86 162.96 437.31 163.95
  A 1.22 1.19 0.3 0 0 437.95 164.58
  Q 439.40 165.18 440.61 164.31
  A 1.28 1.28 0.0 0 0 440.33 162.08
  Z"
/>
<path fill="#ffffff" d="
  M 481.91 162.76
  C 482.60 160.73 483.22 153.11 486.46 154.37
  A 0.54 0.53 19.0 0 1 486.78 155.02
  L 483.58 165.44
  A 1.89 1.89 0.0 0 1 479.94 165.34
  L 478.34 158.92
  A 0.41 0.41 0.0 0 0 477.54 158.91
  L 475.66 165.62
  A 1.73 1.72 44.3 0 1 472.35 165.66
  L 469.07 154.91
  Q 468.86 154.23 469.57 154.24
  L 471.16 154.27
  Q 471.86 154.28 472.00 154.96
  L 473.63 162.72
  A 0.39 0.39 0.0 0 0 474.38 162.76
  Q 475.64 159.20 476.19 155.44
  A 1.78 1.77 -47.9 0 1 479.67 155.26
  L 481.55 162.75
  Q 481.71 163.38 481.91 162.76
  Z"
/>
<path fill="#ffffff" d="
  M 499.57 162.16
  L 502.18 166.01
  A 0.49 0.49 0.0 0 1 501.73 166.78
  Q 500.89 166.70 500.06 166.57
  A 1.13 1.11 77.8 0 1 499.31 166.08
  L 496.61 162.02
  A 0.46 0.46 0.0 0 0 495.76 162.27
  L 495.74 166.13
  Q 495.74 166.75 495.12 166.75
  L 493.88 166.75
  A 0.63 0.63 0.0 0 1 493.25 166.12
  L 493.25 155.00
  Q 493.25 154.44 493.81 154.37
  C 497.78 153.92 504.06 154.14 501.93 159.71
  Q 501.73 160.22 501.26 160.51
  L 499.73 161.43
  Q 499.27 161.71 499.57 162.16
  Z
  M 499.6563 157.2650
  A 1.30 1.30 0.0 0 0 498.3272 155.9948
  L 496.9475 156.0261
  A 1.30 1.30 0.0 0 0 495.6774 157.3553
  L 495.7037 158.5150
  A 1.30 1.30 0.0 0 0 497.0328 159.7852
  L 498.4125 159.7539
  A 1.30 1.30 0.0 0 0 499.6826 158.4247
  L 499.6563 157.2650
  Z"
/>
<rect fill="#ffffff" x="509.75" y="154.24" width="2.50" height="12.48" rx="0.68"/>
<path fill="#ffffff" d="
  M 521.79 156.16
  L 519.19 155.85
  A 0.80 0.80 0.0 0 1 519.29 154.26
  L 527.37 154.25
  Q 528.00 154.25 528.00 154.87
  L 528.00 155.41
  Q 528.00 155.98 527.43 155.99
  Q 526.44 156.01 525.45 156.00
  Q 524.80 155.99 524.79 156.65
  L 524.66 166.08
  Q 524.65 166.75 523.98 166.75
  L 523.26 166.75
  A 0.67 0.66 -3.4 0 1 522.60 166.17
  Q 522.04 161.50 522.33 156.81
  A 0.61 0.61 0.0 0 0 521.79 156.16
  Z"
/>
<path fill="#ffffff" d="
  M 540.25 156.97
  L 540.25 165.71
  A 0.80 0.77 69.5 0 1 540.00 166.29
  Q 539.06 167.15 538.05 166.50
  Q 537.75 166.30 537.75 165.94
  L 537.75 156.63
  Q 537.75 156.00 537.13 156.00
  L 535.50 156.00
  A 1.08 0.86 12.8 0 1 534.43 154.67
  C 534.89 153.96 541.90 154.25 543.04 154.28
  A 0.75 0.74 24.3 0 1 543.53 155.57
  Q 542.73 156.31 541.47 156.01
  A 0.99 0.98 -83.1 0 0 540.25 156.97
  Z"
/>
<path fill="#ffffff" d="
  M 553.88 165.05
  Q 555.52 164.91 556.86 165.03
  Q 557.27 165.06 557.52 165.40
  L 557.70 165.64
  A 0.49 0.49 0.0 0 1 557.33 166.42
  L 551.30 166.78
  A 0.99 0.99 0.0 0 1 550.25 165.79
  L 550.25 154.86
  A 0.64 0.64 0.0 0 1 550.89 154.22
  L 557.18 154.31
  A 0.84 0.84 0.0 0 1 557.18 155.99
  L 553.37 156.01
  Q 552.75 156.01 552.75 156.63
  L 552.75 158.88
  Q 552.75 159.50 553.38 159.50
  L 555.59 159.50
  Q 556.13 159.50 556.61 159.74
  Q 557.65 160.27 556.75 160.98
  Q 556.36 161.29 555.87 161.26
  Q 554.62 161.16 554.06 161.23
  A 2.05 1.76 -46.6 0 0 553.88 165.05
  Z"
/>
<path fill="#ffffff" d="
  M 572.97 161.91
  L 573.02 154.79
  A 0.52 0.51 89.4 0 1 573.52 154.27
  L 574.86 154.24
  Q 575.50 154.23 575.50 154.87
  L 575.50 165.24
  A 1.52 1.52 0.0 0 1 572.70 166.06
  L 567.87 158.58
  Q 567.21 157.54 567.22 158.77
  L 567.31 166.06
  A 0.37 0.36 -3.3 0 1 566.97 166.43
  L 565.67 166.53
  Q 565.00 166.58 565.00 165.91
  L 565.00 155.51
  A 1.52 1.52 0.0 0 1 567.80 154.69
  L 572.47 162.05
  Q 572.97 162.83 572.97 161.91
  Z"
/>
<circle fill="#ffffff" cx="451.69" cy="165.26" r="1.32"/>
<path fill="#ffffff" d="
  M 216.62 185.45
  A 6.43 6.43 0.0 0 1 210.19 191.88
  A 6.43 6.43 0.0 0 1 203.76 185.45
  A 6.43 6.43 0.0 0 1 210.19 179.02
  A 6.43 6.43 0.0 0 1 216.62 185.45
  Z
  M 214.21 185.41
  A 4.05 4.05 0.0 0 0 210.16 181.36
  A 4.05 4.05 0.0 0 0 206.11 185.41
  A 4.05 4.05 0.0 0 0 210.16 189.46
  A 4.05 4.05 0.0 0 0 214.21 185.41
  Z"
/>
<path fill="#ffffff" d="
  M 226.03 183.72
  L 225.98 190.71
  A 1.06 1.05 75.8 0 1 225.43 191.64
  Q 224.68 192.04 223.83 191.37
  A 0.89 0.86 -71.4 0 1 223.50 190.68
  L 223.50 180.79
  A 1.66 1.66 0.0 0 1 226.56 179.89
  L 231.22 187.10
  Q 231.75 187.92 231.75 186.95
  L 231.75 179.87
  Q 231.75 179.25 232.38 179.25
  L 233.65 179.25
  A 0.65 0.64 -90.0 0 1 234.29 179.90
  L 234.17 190.45
  A 1.54 1.54 0.0 0 1 231.32 191.24
  L 226.62 183.56
  A 0.32 0.32 0.0 0 0 226.03 183.72
  Z"
/>
<path fill="#ffffff" d="
  M 254.95 184.25
  L 257.75 184.25
  A 1.03 1.03 0.0 0 1 258.58 184.67
  Q 259.13 185.43 257.95 186.12
  Q 257.73 186.25 257.48 186.25
  L 254.88 186.25
  Q 254.32 186.25 254.35 186.81
  L 254.47 189.15
  Q 254.50 189.72 255.07 189.78
  L 258.58 190.10
  Q 258.90 190.13 259.06 190.41
  L 259.21 190.66
  A 0.46 0.46 0.0 0 1 258.90 191.35
  Q 255.59 191.94 252.27 191.58
  Q 251.75 191.53 251.75 191.01
  L 251.75 179.75
  Q 251.75 179.25 252.25 179.25
  L 258.55 179.25
  A 0.75 0.75 0.0 0 1 258.95 180.64
  Q 257.68 181.44 255.86 180.90
  A 1.22 1.22 0.0 0 0 254.29 182.10
  L 254.32 183.64
  A 0.63 0.63 0.0 0 0 254.95 184.25
  Z"
/>
<path fill="#ffffff" d="
  M 269.67 185.01
  L 266.52 179.73
  Q 266.19 179.19 266.83 179.19
  Q 269.99 179.19 270.64 182.35
  A 0.76 0.76 0.0 0 0 272.03 182.60
  C 273.00 181.07 273.28 178.58 275.86 179.29
  A 0.58 0.58 0.0 0 1 276.19 180.17
  L 272.98 185.00
  Q 272.66 185.48 272.99 185.96
  L 276.30 190.81
  A 0.64 0.64 0.0 0 1 275.67 191.80
  L 274.26 191.57
  Q 273.69 191.48 273.41 190.97
  L 271.82 188.07
  A 0.47 0.47 0.0 0 0 270.99 188.08
  C 270.05 189.88 269.37 192.21 266.82 191.73
  Q 266.14 191.61 266.51 191.02
  L 269.67 185.91
  Q 269.94 185.46 269.67 185.01
  Z"
/>
<path fill="#ffffff" d="
  M 286.26 187.65
  Q 286.66 189.19 286.44 190.91
  A 1.35 1.35 0.0 0 1 283.75 190.75
  L 283.75 180.01
  Q 283.75 179.47 284.28 179.39
  C 287.33 178.93 293.39 178.70 292.84 183.19
  C 292.38 186.93 289.51 186.49 286.65 187.04
  A 0.50 0.50 0.0 0 0 286.26 187.65
  Z
  M 290.0951 181.7202
  A 0.76 0.76 0.0 0 0 289.3116 180.9845
  L 286.9928 181.0573
  A 0.76 0.76 0.0 0 0 286.2570 181.8408
  L 286.3249 183.9998
  A 0.76 0.76 0.0 0 0 287.1084 184.7355
  L 289.4272 184.6627
  A 0.76 0.76 0.0 0 0 290.1630 183.8792
  L 290.0951 181.7202
  Z"
/>
<path fill="#ffffff" d="
  M 306.22 187.30
  L 308.58 191.14
  Q 308.75 191.41 308.45 191.53
  C 305.64 192.64 304.32 189.08 303.54 187.12
  A 0.75 0.75 0.0 0 0 302.09 187.41
  L 302.14 190.87
  Q 302.15 191.40 301.68 191.62
  Q 300.80 192.04 299.89 191.43
  Q 299.50 191.16 299.50 190.70
  L 299.50 179.78
  Q 299.50 179.34 299.94 179.31
  C 303.86 179.10 310.53 178.73 308.34 184.63
  Q 308.19 185.04 307.84 185.30
  L 306.39 186.42
  A 0.68 0.67 -34.5 0 0 306.22 187.30
  Z
  M 302.03 181.51
  L 302.03 184.23
  A 0.52 0.52 0.0 0 0 302.55 184.75
  L 304.43 184.75
  A 1.82 1.74 -0.0 0 0 306.25 183.01
  L 306.25 182.73
  A 1.82 1.74 0.0 0 0 304.43 180.99
  L 302.55 180.99
  A 0.52 0.52 0.0 0 0 302.03 181.51
  Z"
/>
<path fill="#ffffff" d="
  M 319.57 186.26
  A 1.91 1.77 -49.8 0 0 319.74 189.89
  L 322.73 190.04
  A 0.76 0.74 73.2 0 1 323.29 190.35
  C 324.83 192.47 317.10 191.61 316.46 191.52
  Q 316.00 191.45 316.00 190.98
  L 316.00 180.00
  Q 316.00 179.44 316.56 179.37
  Q 320.13 178.93 322.92 179.39
  A 0.83 0.82 -38.9 0 1 322.74 181.03
  Q 320.18 180.92 319.70 180.98
  A 1.69 1.59 -47.5 0 0 319.75 184.25
  L 322.35 184.25
  Q 323.03 184.25 322.98 184.92
  L 322.92 185.66
  Q 322.86 186.49 322.04 186.34
  Q 320.38 186.02 319.57 186.26
  Z"
/>
<path fill="#ffffff" d="
  M 335.03 189.87
  Q 335.60 189.81 336.21 189.55
  A 1.38 1.38 0.0 0 0 336.16 186.99
  L 332.26 185.48
  Q 331.77 185.29 331.48 184.86
  C 326.43 177.22 341.78 178.55 338.78 182.35
  A 1.36 1.36 0.0 0 1 336.46 182.04
  Q 335.76 180.44 333.82 181.19
  A 1.35 1.35 0.0 0 0 333.79 183.69
  C 336.15 184.69 339.01 184.98 339.49 187.96
  C 340.23 192.47 331.00 193.25 330.75 188.91
  Q 330.73 188.46 331.16 188.33
  Q 332.90 187.78 333.68 189.16
  A 1.40 1.38 72.3 0 0 335.03 189.87
  Z"
/>
<path fill="#ffffff" d="
  M 349.79 183.70
  L 354.12 185.45
  Q 354.63 185.66 354.87 186.14
  C 357.88 192.05 350.28 192.62 346.88 190.38
  A 1.20 1.20 0.0 0 1 347.54 188.17
  L 348.53 188.17
  A 0.93 0.93 0.0 0 1 349.40 188.77
  Q 349.89 190.08 351.52 189.91
  A 1.33 1.33 0.0 0 0 352.69 188.89
  C 353.25 186.55 349.30 186.04 347.69 185.22
  Q 347.26 185.01 347.05 184.57
  C 343.32 176.73 358.24 178.73 354.46 182.81
  A 1.19 1.19 0.0 0 1 352.43 182.29
  Q 352.01 180.56 350.01 181.00
  A 1.42 1.42 0.0 0 0 349.79 183.70
  Z"
/>
<path fill="#ffffff" d="
  M 376.43 188.74
  L 376.53 179.86
  A 0.62 0.62 0.0 0 1 377.15 179.25
  L 378.46 179.25
  A 0.60 0.60 0.0 0 1 379.06 179.84
  Q 379.16 183.69 379.09 187.54
  C 378.99 192.82 371.84 193.17 371.36 188.82
  Q 371.30 188.30 371.79 188.12
  Q 373.55 187.47 374.26 189.16
  A 1.13 1.13 0.0 0 0 376.43 188.74
  Z"
/>
<path fill="#ffffff" d="
  M 387.44 184.76
  C 383.89 179.40 393.94 176.94 395.33 181.47
  A 1.17 1.17 0.0 0 1 393.15 182.32
  Q 392.27 180.47 390.12 181.16
  A 1.31 1.31 0.0 0 0 390.01 183.61
  L 394.83 185.65
  A 2.43 2.43 0.0 0 1 395.80 189.39
  Q 392.15 194.03 386.75 189.96
  A 0.95 0.95 0.0 0 1 387.32 188.25
  L 388.79 188.25
  Q 389.31 188.25 389.57 188.71
  Q 390.88 191.02 392.92 189.22
  A 1.28 1.28 0.0 0 0 392.55 187.07
  L 388.11 185.30
  A 1.41 1.39 83.3 0 1 387.44 184.76
  Z"
/>
<circle fill="#ffffff" cx="363.76" cy="190.24" r="1.32"/>
<path fill="#ffffff" d="
  M 357.33 256.82
  C 338.30 259.28 309.68 256.66 305.86 232.45
  C 303.79 219.33 308.57 207.71 320.95 201.96
  C 339.02 193.57 360.86 195.48 378.76 202.86
  Q 379.11 203.00 379.11 203.38
  L 379.11 217.57
  Q 379.11 218.07 378.67 217.83
  C 365.24 210.39 350.00 204.62 334.54 210.19
  C 318.26 216.06 317.68 237.74 333.96 243.84
  C 349.36 249.61 366.56 244.70 378.37 233.76
  A 0.36 0.36 0.0 0 1 378.97 233.99
  L 379.99 247.78
  Q 380.02 248.19 379.68 248.43
  Q 369.70 255.22 357.33 256.82
  Z"
/>
<path fill="#ffffff" d="
  M 546.39 255.44
  C 530.08 258.51 510.12 257.15 494.03 250.99
  Q 492.58 250.44 492.76 248.48
  Q 493.36 242.12 492.98 235.84
  A 0.36 0.36 0.0 0 1 493.56 235.53
  C 501.36 241.36 509.65 243.53 519.75 245.04
  C 524.44 245.74 547.18 248.17 544.80 238.54
  C 544.10 235.72 540.55 233.97 538.01 233.69
  Q 524.87 232.28 511.76 230.72
  C 507.88 230.26 500.67 227.99 497.44 225.57
  C 490.87 220.65 490.24 210.32 496.43 204.16
  C 508.52 192.15 543.97 197.48 558.69 201.80
  Q 559.10 201.93 559.10 202.36
  L 559.12 216.06
  Q 559.12 216.47 558.74 216.31
  Q 546.64 211.31 533.73 209.39
  C 528.12 208.55 517.28 207.41 511.30 211.22
  Q 510.86 211.49 510.67 211.98
  C 507.64 219.60 516.35 221.02 521.50 221.48
  C 532.53 222.48 559.70 222.22 562.32 237.17
  C 564.20 247.90 555.59 253.71 546.39 255.44
  Z"
/>
<path fill="#ffffff" d="
  M 56.53 217.78
  Q 55.77 236.78 56.87 255.77
  Q 56.90 256.25 56.41 256.25
  L 40.47 256.25
  Q 39.83 256.25 39.78 255.62
  Q 39.65 253.96 39.74 252.50
  C 40.88 234.46 40.30 216.80 39.74 198.77
  Q 39.72 198.23 40.26 198.28
  Q 51.89 199.35 63.50 198.24
  Q 64.09 198.19 64.27 198.75
  Q 70.95 219.28 79.45 239.12
  A 0.46 0.45 -44.2 0 0 80.28 239.13
  Q 89.37 219.50 96.21 198.97
  A 1.01 1.01 0.0 0 1 97.26 198.28
  Q 108.42 199.27 119.58 198.35
  Q 120.64 198.27 120.60 199.33
  Q 119.45 227.52 120.77 255.71
  Q 120.80 256.25 120.26 256.25
  L 104.25 256.25
  A 0.96 0.96 0.0 0 1 103.29 255.25
  Q 104.17 236.29 103.45 217.31
  Q 103.42 216.63 103.14 217.25
  Q 94.50 236.29 87.48 255.98
  A 0.79 0.77 9.4 0 1 86.74 256.50
  L 73.04 256.50
  Q 72.49 256.50 72.31 255.98
  Q 65.52 236.44 56.72 217.74
  Q 56.55 217.38 56.53 217.78
  Z"
/>
<path fill="#ffffff" d="
  M 155.82 256.05
  A 0.22 0.22 0.0 0 1 155.60 256.27
  L 140.07 256.27
  A 1.47 0.29 0.0 0 1 138.60 255.98
  L 138.60 198.86
  A 1.47 0.29 -0.0 0 1 140.07 198.57
  L 155.60 198.57
  A 0.22 0.22 0.0 0 1 155.82 198.79
  L 155.82 256.05
  Z"
/>
<path fill="#ffffff" d="
  M 191.23 217.81
  Q 190.57 216.38 190.50 217.96
  Q 189.68 236.66 191.33 255.32
  Q 191.41 256.25 190.48 256.25
  L 174.50 256.25
  A 0.49 0.49 0.0 0 1 174.01 255.74
  Q 175.28 227.30 174.08 198.86
  Q 174.06 198.33 174.58 198.37
  Q 186.23 199.21 197.88 198.32
  Q 198.42 198.27 198.59 198.80
  Q 205.18 219.40 213.84 239.22
  A 0.42 0.42 0.0 0 0 214.60 239.25
  C 221.10 226.57 226.00 212.13 230.88 198.73
  A 0.64 0.64 0.0 0 1 231.56 198.31
  Q 243.02 199.51 254.46 198.39
  A 0.50 0.50 0.0 0 1 255.01 198.91
  Q 253.18 227.40 255.26 255.85
  A 0.37 0.36 87.8 0 1 254.90 256.25
  L 238.81 256.25
  Q 237.24 256.25 237.34 254.69
  Q 238.46 236.35 237.62 218.00
  Q 237.57 216.86 237.10 217.90
  Q 228.75 236.32 222.01 255.40
  A 1.66 1.65 9.7 0 1 220.45 256.50
  L 207.42 256.50
  A 1.04 1.02 80.4 0 1 206.45 255.80
  Q 199.87 236.39 191.23 217.81
  Z"
/>
<rect fill="#ffffff" x="-8.49" y="-28.83" transform="translate(281.76,227.42) rotate(-0.1)" width="16.98" height="57.66" rx="0.27"/>
<path fill="#ffffff" d="
  M 412.30 217.84
  Q 411.60 236.64 412.54 255.44
  A 0.77 0.77 0.0 0 1 411.77 256.25
  L 396.28 256.25
  A 0.63 0.62 -89.1 0 1 395.66 255.60
  Q 396.82 227.20 395.67 198.80
  Q 395.64 198.25 396.20 198.30
  Q 407.79 199.28 419.38 198.32
  A 0.52 0.51 -11.7 0 1 419.91 198.66
  C 424.71 212.32 429.67 227.14 435.36 239.17
  A 0.43 0.42 -45.5 0 0 436.13 239.16
  Q 445.07 219.63 451.84 199.24
  A 1.43 1.41 -77.9 0 1 453.32 198.27
  Q 464.55 199.30 475.79 198.29
  A 0.49 0.49 0.0 0 1 476.32 198.79
  Q 475.61 227.18 476.39 255.57
  Q 476.41 256.25 475.73 256.25
  L 459.97 256.25
  Q 458.88 256.25 458.94 255.16
  Q 459.92 236.65 459.28 218.12
  A 0.27 0.27 0.0 0 0 458.77 218.01
  Q 449.94 236.53 443.26 255.93
  Q 443.07 256.48 442.49 256.48
  L 429.02 256.51
  A 0.96 0.96 0.0 0 1 428.11 255.86
  Q 421.32 236.41 412.54 217.79
  Q 412.32 217.33 412.30 217.84
  Z"
/>
<ellipse fill="#ffffff" cx="0.00" cy="0.00" transform="translate(344.11,268.00) rotate(30.5)" rx="2.60" ry="0.94"/>
<path fill="#ffffff" d="
  M 168.86 272.95
  C 167.68 277.13 171.75 280.20 175.20 277.31
  Q 175.57 277.00 176.04 277.00
  L 177.74 277.00
  Q 178.32 277.00 178.07 277.52
  C 176.38 280.96 171.50 281.57 168.93 279.73
  C 164.18 276.34 165.56 269.25 171.49 267.76
  C 172.62 267.48 178.27 269.38 178.25 270.84
  A 1.58 1.57 26.2 0 1 175.44 271.79
  C 173.37 269.19 169.75 269.78 168.86 272.95
  Z"
/>
<path fill="#ffffff" d="
  M 188.71 272.84
  C 190.37 273.46 192.57 273.54 193.63 275.06
  C 196.99 279.86 186.87 283.65 185.39 278.00
  Q 185.25 277.47 185.77 277.30
  Q 187.33 276.80 188.25 277.97
  A 2.00 1.99 -31.7 0 0 190.67 278.54
  Q 191.96 277.94 191.55 276.64
  A 1.21 1.20 -89.1 0 0 190.79 275.85
  L 186.66 274.37
  A 2.02 2.02 0.0 0 1 185.35 272.77
  C 184.56 267.42 190.90 266.12 193.72 269.88
  Q 194.50 270.92 193.29 271.39
  C 190.78 272.36 190.55 268.47 188.30 270.29
  A 1.49 1.49 0.0 0 0 188.71 272.84
  Z"
/>
<path fill="#ffffff" d="
  M 212.47 271.69
  C 209.86 272.51 208.90 269.53 205.97 270.27
  C 203.45 270.91 202.70 273.69 203.35 275.93
  C 204.26 279.04 209.37 279.38 210.44 276.14
  A 0.49 0.49 0.0 0 0 209.98 275.50
  L 206.70 275.50
  A 0.48 0.48 0.0 0 1 206.22 274.95
  L 206.34 274.08
  Q 206.43 273.41 207.10 273.44
  L 211.45 273.62
  Q 214.80 273.76 213.11 276.65
  C 208.78 284.06 198.77 280.19 200.80 272.68
  C 202.30 267.11 209.48 265.94 212.67 271.16
  Q 212.91 271.56 212.47 271.69
  Z"
/>
<path fill="#ffffff" d="
  M 232.13 274.30
  A 6.44 6.44 0.0 0 1 225.69 280.74
  A 6.44 6.44 0.0 0 1 219.25 274.30
  A 6.44 6.44 0.0 0 1 225.69 267.86
  A 6.44 6.44 0.0 0 1 232.13 274.30
  Z
  M 229.73 274.30
  A 4.00 4.00 0.0 0 0 225.73 270.30
  A 4.00 4.00 0.0 0 0 221.73 274.30
  A 4.00 4.00 0.0 0 0 225.73 278.30
  A 4.00 4.00 0.0 0 0 229.73 274.30
  Z"
/>
<path fill="#ffffff" d="
  M 262.86 280.73
  C 250.70 279.02 260.39 260.34 268.85 270.75
  Q 269.42 271.45 268.55 271.69
  Q 266.60 272.23 265.46 270.87
  Q 265.14 270.49 264.67 270.37
  C 255.74 268.17 260.26 284.07 266.60 276.78
  A 0.77 0.77 0.0 0 0 266.02 275.50
  L 263.12 275.50
  A 0.50 0.49 4.5 0 1 262.63 274.93
  L 262.76 274.07
  Q 262.85 273.49 263.43 273.50
  L 268.84 273.51
  Q 269.40 273.51 269.47 274.06
  C 269.99 277.86 266.39 281.23 262.86 280.73
  Z"
/>
<path fill="#ffffff" d="
  M 331.87 273.14
  C 332.52 271.13 333.94 266.85 336.24 268.04
  Q 336.65 268.25 336.45 268.67
  C 334.52 272.60 332.36 275.28 332.51 279.84
  Q 332.54 280.59 331.79 280.63
  L 330.71 280.70
  Q 330.00 280.74 330.00 280.02
  L 330.00 276.53
  A 2.14 2.12 31.2 0 0 329.75 275.53
  L 326.14 268.72
  A 0.49 0.49 0.0 0 1 326.58 268.00
  L 328.16 268.00
  A 0.86 0.86 0.0 0 1 328.97 268.58
  Q 329.79 270.99 331.08 273.22
  Q 331.57 274.06 331.87 273.14
  Z"
/>
<path fill="#ffffff" d="
  M 354.04 276.33
  C 352.14 274.64 347.73 275.26 347.91 271.47
  C 348.12 266.83 355.91 266.61 356.11 270.50
  A 1.14 1.14 0.0 0 1 354.00 271.17
  Q 353.00 269.60 351.12 270.13
  A 1.45 1.45 0.0 0 0 351.30 272.95
  C 365.04 275.01 349.39 286.39 348.02 277.73
  Q 347.93 277.18 348.49 277.14
  Q 350.16 277.01 351.20 278.33
  Q 351.51 278.73 352.02 278.76
  Q 353.69 278.84 354.27 277.30
  Q 354.49 276.74 354.04 276.33
  Z"
/>
<path fill="#ffffff" d="
  M 407.42 274.30
  A 6.42 6.42 0.0 0 1 401.00 280.72
  A 6.42 6.42 0.0 0 1 394.58 274.30
  A 6.42 6.42 0.0 0 1 401.00 267.88
  A 6.42 6.42 0.0 0 1 407.42 274.30
  Z
  M 405.03 274.31
  A 4.01 4.01 0.0 0 0 401.02 270.30
  A 4.01 4.01 0.0 0 0 397.01 274.31
  A 4.01 4.01 0.0 0 0 401.02 278.32
  A 4.01 4.01 0.0 0 0 405.03 274.31
  Z"
/>
<path fill="#ffffff" d="
  M 276.03 280.57
  Q 275.52 280.43 275.70 279.92
  L 279.59 268.97
  A 1.91 1.91 0.0 0 1 283.18 268.96
  L 287.11 279.70
  A 0.77 0.77 0.0 0 1 286.53 280.73
  Q 284.19 281.18 284.12 278.87
  A 0.64 0.63 89.1 0 0 283.49 278.25
  L 279.23 278.25
  A 0.58 0.57 0.0 0 0 278.65 278.82
  Q 278.65 281.31 276.03 280.57
  Z
  M 279.51 275.83
  A 0.33 0.33 0.0 0 0 279.81 276.29
  L 282.69 276.39
  A 0.33 0.33 0.0 0 0 283.02 275.96
  L 281.71 271.95
  A 0.33 0.33 0.0 0 0 281.09 271.93
  L 279.51 275.83
  Z"
/>
<path fill="#ffffff" d="
  M 297.42 275.74
  A 0.61 0.61 0.0 0 0 296.28 276.04
  L 296.28 280.00
  A 0.61 0.60 86.2 0 1 295.76 280.60
  L 294.47 280.78
  A 0.64 0.63 86.1 0 1 293.75 280.15
  L 293.75 268.51
  Q 293.75 268.02 294.24 268.01
  C 296.74 267.98 300.19 267.41 302.11 269.40
  C 304.16 271.51 302.99 274.22 300.52 275.27
  Q 299.96 275.51 300.29 276.02
  L 302.97 280.05
  Q 303.52 280.89 302.52 280.79
  L 300.41 280.59
  Q 300.11 280.56 299.97 280.30
  L 297.42 275.74
  Z
  M 300.3235 271.1008
  A 1.05 1.05 0.0 0 0 299.2790 270.0453
  L 297.2590 270.0347
  A 1.05 1.05 0.0 0 0 296.2035 271.0792
  L 296.1965 272.4192
  A 1.05 1.05 0.0 0 0 297.2410 273.4747
  L 299.2610 273.4853
  A 1.05 1.05 0.0 0 0 300.3165 272.4408
  L 300.3235 271.1008
  Z"
/>
<path fill="#ffffff" d="
  M 313.06 275.75
  L 312.69 280.21
  Q 312.64 280.81 312.03 280.77
  L 310.90 280.68
  A 0.70 0.70 0.0 0 1 310.25 279.98
  L 310.25 268.75
  Q 310.25 268.22 310.77 268.14
  C 313.68 267.72 318.16 267.45 319.24 270.52
  C 319.94 272.50 318.74 274.21 317.22 275.39
  Q 316.77 275.74 317.06 276.22
  L 319.28 280.03
  Q 319.57 280.53 319.01 280.69
  C 316.09 281.50 315.04 277.47 313.37 275.65
  Q 313.09 275.35 313.06 275.75
  Z
  M 316.9284 271.1227
  A 1.20 1.20 0.0 0 0 315.6853 269.9675
  L 313.8465 270.0349
  A 1.20 1.20 0.0 0 0 312.6913 271.2781
  L 312.7316 272.3773
  A 1.20 1.20 0.0 0 0 313.9747 273.5325
  L 315.8135 273.4651
  A 1.20 1.20 0.0 0 0 316.9687 272.2219
  L 316.9284 271.1227
  Z"
/>
<path fill="#ffffff" d="
  M 384.95 273.83
  Q 383.27 276.76 382.32 279.97
  A 1.21 1.21 0.0 0 1 380.06 280.12
  L 377.13 273.60
  A 0.32 0.32 0.0 0 0 376.52 273.74
  L 376.66 280.09
  Q 376.67 280.41 376.35 280.46
  L 374.84 280.66
  Q 374.25 280.73 374.25 280.14
  L 374.25 269.14
  A 1.54 1.54 0.0 0 1 377.21 268.54
  L 380.63 276.57
  A 0.46 0.46 0.0 0 0 381.47 276.57
  L 384.83 268.62
  A 1.65 1.65 0.0 0 1 388.00 269.27
  L 388.00 280.02
  Q 388.00 280.74 387.28 280.70
  L 386.17 280.63
  Q 385.50 280.59 385.50 279.92
  L 385.50 273.97
  Q 385.50 272.86 384.95 273.83
  Z"
/>
<path fill="#ffffff" d="
  M 414.23 268.62
  A 0.61 0.61 0.0 0 1 414.84 268.01
  L 418.63 268.00
  A 6.62 5.89 -0.1 0 1 425.26 273.88
  L 425.26 274.80
  A 6.62 5.89 -0.1 0 1 418.65 280.70
  L 414.86 280.71
  A 0.61 0.61 0.0 0 1 414.25 280.10
  L 414.23 268.62
  Z
  M 416.74 270.77
  L 416.76 277.95
  A 0.77 0.77 0.0 0 0 417.53 278.71
  L 418.69 278.71
  A 3.83 3.53 -0.1 0 0 422.51 275.17
  L 422.51 273.51
  A 3.83 3.53 -0.1 0 0 418.67 269.99
  L 417.51 269.99
  A 0.77 0.77 0.0 0 0 416.74 270.77
  Z"
/>
<path fill="#ffffff" d="
  M 237.86 279.92
  A 0.53 0.53 0.0 0 1 238.25 279.08
  L 239.79 278.98
  Q 240.35 278.95 240.58 279.46
  Q 241.92 282.50 239.05 283.62
  Q 238.88 283.69 238.78 283.53
  L 238.58 283.19
  A 0.15 0.15 0.0 0 1 238.62 283.00
  Q 239.53 282.22 237.86 279.92
  Z"
/>
<path fill="#ffffff" d="
  M 431.55 279.17
  L 432.62 278.97
  Q 433.28 278.84 433.51 279.47
  Q 434.56 282.27 432.42 283.74
  A 0.43 0.43 0.0 0 1 431.78 283.24
  Q 432.39 281.60 431.19 280.23
  A 0.65 0.64 64.0 0 1 431.55 279.17
  Z"
/>
<path fill="#ffffff" d="
  M 277.58 300.96
  L 277.29 303.36
  Q 277.21 304.00 277.86 304.00
  L 280.92 304.00
  Q 281.35 304.00 281.70 304.26
  Q 282.44 304.80 282.17 305.51
  A 0.76 0.75 9.9 0 1 281.46 306.00
  L 275.63 306.00
  Q 275.00 306.00 275.00 305.37
  L 275.00 293.88
  Q 275.00 293.25 275.62 293.25
  L 281.38 293.25
  Q 282.01 293.25 282.05 293.88
  L 282.09 294.56
  Q 282.13 295.25 281.44 295.25
  L 277.88 295.25
  Q 277.25 295.25 277.25 295.87
  L 277.25 297.87
  Q 277.25 298.50 277.88 298.50
  L 280.87 298.50
  Q 281.50 298.50 281.50 299.12
  L 281.50 299.85
  Q 281.50 300.46 280.90 300.47
  L 278.04 300.55
  Q 277.63 300.56 277.58 300.96
  Z"
/>
<path fill="#ffffff" d="
  M 294.75 295.99
  L 294.75 305.38
  Q 294.75 306.00 294.13 306.00
  L 292.88 306.00
  Q 292.25 306.00 292.25 305.37
  L 292.25 295.88
  Q 292.25 295.25 291.63 295.25
  L 289.63 295.25
  Q 289.00 295.25 289.00 294.63
  L 289.00 294.04
  A 0.65 0.65 0.0 0 1 289.63 293.39
  Q 293.42 293.25 297.19 293.25
  A 1.07 1.06 -11.0 0 1 298.18 293.91
  Q 298.58 294.86 297.35 295.13
  Q 296.88 295.23 296.40 295.24
  Q 295.87 295.25 295.36 295.31
  A 0.68 0.68 0.0 0 0 294.75 295.99
  Z"
/>
<path fill="#ffffff" d="
  M 316.11 302.74
  C 312.19 309.31 302.53 305.35 304.31 298.09
  C 305.72 292.36 312.14 291.80 315.94 296.10
  A 0.70 0.70 0.0 0 1 315.51 297.26
  Q 313.39 297.55 312.23 295.91
  A 0.82 0.79 73.4 0 0 311.61 295.56
  C 304.07 295.12 305.73 305.57 312.00 303.33
  Q 312.42 303.17 312.73 302.85
  Q 313.98 301.51 315.86 302.08
  Q 316.41 302.25 316.11 302.74
  Z"
/>
<circle fill="#ffffff" cx="324.35" cy="304.59" r="1.39"/>
</svg>
